# MagicaVoxel @ Ephtracy

# group
g BigBed

# material
mtllib BigBed.mtl
usemtl palette

# normals
vn -1 0 0
vn 1 0 0
vn 0 0 1
vn 0 0 -1
vn 0 -1 0
vn 0 1 0

# texcoords
vt 0.00195313 0.5
vt 0.00585938 0.5
vt 0.00976563 0.5
vt 0.0332031 0.5
vt 0.306641 0.5
vt 0.537109 0.5
vt 0.697266 0.5

# verts
v -20 2 27.5
v -20 2 -27.5
v -20 3 27.5
v -20 3 -27.5
v -20 4 25.5
v -20 4 -12.5
v -20 4 -14.5
v -20 10 25.5
v -20 10 -12.5
v -20 10 -14.5
v -19 3 25.5
v -19 3 -27.5
v -19 4 25.5
v -19 4 -12.5
v -19 4 -14.5
v -19 9 -14.5
v -19 9 -24.5
v -19 10 25.5
v -19 10 -12.5
v -19 10 -14.5
v -19 11 25.5
v -19 11 -12.5
v -19 11 -14.5
v -19 12 -24.5
v -19 12 -25.5
v -19 15 -25.5
v -19 15 -27.5
v -18 0 25.5
v -18 0 23.5
v -18 0 -23.5
v -18 0 -25.5
v -18 2 25.5
v -18 2 23.5
v -18 2 -23.5
v -18 2 -25.5
v -18 3 26.5
v -18 3 25.5
v -18 8 26.5
v -18 8 25.5
v -18 8 24.5
v -18 9 25.5
v -18 9 24.5
v -18 9 -14.5
v -18 9 -24.5
v -18 10 25.5
v -18 10 24.5
v -18 10 -14.5
v -18 10 -24.5
v -17 8 26.5
v -17 8 25.5
v -17 9 26.5
v -17 9 25.5
v -15 10 -19.5
v -15 10 -23.5
v -15 11 -19.5
v -15 11 -23.5
v -15 12 -19.5
v -15 12 -23.5
v -14 10 -18.5
v -14 10 -19.5
v -14 10 -23.5
v -14 10 -24.5
v -14 11 -18.5
v -14 11 -19.5
v -14 11 -23.5
v -14 11 -24.5
v -14 12 -23.5
v -14 12 -24.5
v 1 10 -19.5
v 1 10 -23.5
v 1 11 -19.5
v 1 11 -23.5
v 1 12 -19.5
v 1 12 -23.5
v 2 10 -18.5
v 2 10 -19.5
v 2 10 -23.5
v 2 10 -24.5
v 2 11 -18.5
v 2 11 -19.5
v 2 11 -23.5
v 2 11 -24.5
v 2 12 -23.5
v 2 12 -24.5
v 16 0 25.5
v 16 0 23.5
v 16 0 -23.5
v 16 0 -25.5
v 16 2 25.5
v 16 2 23.5
v 16 2 -23.5
v 16 2 -25.5
v 17 9 -25.5
v 17 9 -26.5
v 17 10 -25.5
v 17 10 -26.5
v -19 8 25.5
v -19 8 24.5
v -19 9 24.5
v -19 10 25.5
v -19 10 24.5
v -16 0 25.5
v -16 0 23.5
v -16 0 -23.5
v -16 0 -25.5
v -16 2 25.5
v -16 2 23.5
v -16 2 -23.5
v -16 2 -25.5
v -16 9 -25.5
v -16 9 -26.5
v -16 10 -25.5
v -16 10 -26.5
v -2 10 -18.5
v -2 10 -19.5
v -2 10 -23.5
v -2 10 -24.5
v -2 11 -18.5
v -2 11 -19.5
v -2 11 -23.5
v -2 11 -24.5
v -2 12 -23.5
v -2 12 -24.5
v -1 10 -19.5
v -1 10 -23.5
v -1 11 -19.5
v -1 11 -23.5
v -1 12 -19.5
v -1 12 -23.5
v 15 10 -18.5
v 15 10 -19.5
v 15 10 -23.5
v 15 10 -24.5
v 15 11 -18.5
v 15 11 -19.5
v 15 11 -23.5
v 15 11 -24.5
v 15 12 -23.5
v 15 12 -24.5
v 16 10 -19.5
v 16 10 -23.5
v 16 11 -19.5
v 16 11 -23.5
v 16 12 -19.5
v 16 12 -23.5
v 18 0 25.5
v 18 0 23.5
v 18 0 -23.5
v 18 0 -25.5
v 18 2 25.5
v 18 2 23.5
v 18 2 -23.5
v 18 2 -25.5
v 18 3 26.5
v 18 3 25.5
v 18 9 26.5
v 18 9 25.5
v 18 9 -14.5
v 18 9 -25.5
v 18 10 -14.5
v 18 10 -24.5
v 18 12 -24.5
v 18 12 -25.5
v 19 3 25.5
v 19 3 -27.5
v 19 4 25.5
v 19 4 -12.5
v 19 4 -14.5
v 19 9 -14.5
v 19 9 -25.5
v 19 10 25.5
v 19 10 -12.5
v 19 10 -14.5
v 19 11 25.5
v 19 11 -12.5
v 19 11 -14.5
v 19 15 -25.5
v 19 15 -27.5
v 20 2 27.5
v 20 2 -27.5
v 20 3 27.5
v 20 3 -27.5
v 20 4 25.5
v 20 4 -12.5
v 20 4 -14.5
v 20 10 25.5
v 20 10 -12.5
v 20 10 -14.5
v -20 2 27.5
v -20 3 27.5
v 20 2 27.5
v 20 3 27.5
v -18 3 26.5
v -18 8 26.5
v -17 8 26.5
v -17 9 26.5
v 18 3 26.5
v 18 9 26.5
v -20 4 25.5
v -20 10 25.5
v -19 3 25.5
v -19 4 25.5
v -19 8 25.5
v -19 10 25.5
v -19 11 25.5
v -18 0 25.5
v -18 2 25.5
v -18 3 25.5
v -18 8 25.5
v -18 9 25.5
v -18 10 25.5
v -17 8 25.5
v -17 9 25.5
v -16 0 25.5
v -16 2 25.5
v 16 0 25.5
v 16 2 25.5
v 18 0 25.5
v 18 2 25.5
v 18 3 25.5
v 18 9 25.5
v 18 10 25.5
v 19 3 25.5
v 19 4 25.5
v 19 9 25.5
v 19 10 25.5
v 19 11 25.5
v 20 4 25.5
v 20 10 25.5
v -19 8 24.5
v -19 9 24.5
v -19 10 24.5
v -18 8 24.5
v -18 9 24.5
v -18 10 24.5
v -14 10 -18.5
v -14 11 -18.5
v -2 10 -18.5
v -2 11 -18.5
v 2 10 -18.5
v 2 11 -18.5
v 15 10 -18.5
v 15 11 -18.5
v -15 10 -19.5
v -15 11 -19.5
v -15 12 -19.5
v -14 10 -19.5
v -14 11 -19.5
v -2 10 -19.5
v -2 11 -19.5
v -1 10 -19.5
v -1 11 -19.5
v -1 12 -19.5
v 1 10 -19.5
v 1 11 -19.5
v 1 12 -19.5
v 2 10 -19.5
v 2 11 -19.5
v 15 10 -19.5
v 15 11 -19.5
v 16 10 -19.5
v 16 11 -19.5
v 16 12 -19.5
v -18 0 -23.5
v -18 2 -23.5
v -16 0 -23.5
v -16 2 -23.5
v 16 0 -23.5
v 16 2 -23.5
v 18 0 -23.5
v 18 2 -23.5
v -19 9 -24.5
v -19 12 -24.5
v -18 9 -24.5
v -18 10 -24.5
v -14 10 -24.5
v -14 11 -24.5
v -14 12 -24.5
v -2 10 -24.5
v -2 11 -24.5
v -2 12 -24.5
v 2 10 -24.5
v 2 11 -24.5
v 2 12 -24.5
v 15 10 -24.5
v 15 11 -24.5
v 15 12 -24.5
v 18 10 -24.5
v 18 12 -24.5
v -19 12 -25.5
v -19 15 -25.5
v 18 9 -25.5
v 18 12 -25.5
v 19 9 -25.5
v 19 15 -25.5
v -16 9 -26.5
v -16 10 -26.5
v 17 9 -26.5
v 17 10 -26.5
v -18 0 23.5
v -18 2 23.5
v -16 0 23.5
v -16 2 23.5
v 16 0 23.5
v 16 2 23.5
v 18 0 23.5
v 18 2 23.5
v -20 4 -14.5
v -20 10 -14.5
v -19 4 -14.5
v -19 9 -14.5
v -19 10 -14.5
v -19 11 -14.5
v -18 9 -14.5
v -18 10 -14.5
v 18 9 -14.5
v 18 10 -14.5
v 19 4 -14.5
v 19 9 -14.5
v 19 10 -14.5
v 19 11 -14.5
v 20 4 -14.5
v 20 10 -14.5
v -15 10 -23.5
v -15 11 -23.5
v -15 12 -23.5
v -14 10 -23.5
v -14 11 -23.5
v -14 12 -23.5
v -2 10 -23.5
v -2 11 -23.5
v -2 12 -23.5
v -1 10 -23.5
v -1 11 -23.5
v -1 12 -23.5
v 1 10 -23.5
v 1 11 -23.5
v 1 12 -23.5
v 2 10 -23.5
v 2 11 -23.5
v 2 12 -23.5
v 15 10 -23.5
v 15 11 -23.5
v 15 12 -23.5
v 16 10 -23.5
v 16 11 -23.5
v 16 12 -23.5
v -18 0 -25.5
v -18 2 -25.5
v -16 0 -25.5
v -16 2 -25.5
v -16 9 -25.5
v -16 10 -25.5
v 16 0 -25.5
v 16 2 -25.5
v 17 9 -25.5
v 17 10 -25.5
v 18 0 -25.5
v 18 2 -25.5
v -20 2 -27.5
v -20 3 -27.5
v -19 3 -27.5
v -19 15 -27.5
v -18 3 -27.5
v -18 14 -27.5
v 18 3 -27.5
v 18 14 -27.5
v 19 3 -27.5
v 19 15 -27.5
v 20 2 -27.5
v 20 3 -27.5
v -18 0 25.5
v -16 0 25.5
v 16 0 25.5
v 18 0 25.5
v -18 0 23.5
v -16 0 23.5
v 16 0 23.5
v 18 0 23.5
v -18 0 -23.5
v -16 0 -23.5
v 16 0 -23.5
v 18 0 -23.5
v -18 0 -25.5
v -16 0 -25.5
v 16 0 -25.5
v 18 0 -25.5
v -20 2 27.5
v 20 2 27.5
v -18 2 25.5
v -16 2 25.5
v 16 2 25.5
v 18 2 25.5
v -18 2 23.5
v -16 2 23.5
v 16 2 23.5
v 18 2 23.5
v -18 2 -23.5
v -16 2 -23.5
v 16 2 -23.5
v 18 2 -23.5
v -18 2 -25.5
v -16 2 -25.5
v 16 2 -25.5
v 18 2 -25.5
v -20 2 -27.5
v 20 2 -27.5
v -20 4 25.5
v -19 4 25.5
v 19 4 25.5
v 20 4 25.5
v -20 4 -12.5
v -19 4 -12.5
v 19 4 -12.5
v 20 4 -12.5
v -20 4 -14.5
v -19 4 -14.5
v 19 4 -14.5
v 20 4 -14.5
v -19 10 25.5
v -18 10 25.5
v -19 10 24.5
v -18 10 24.5
v -16 10 -25.5
v 17 10 -25.5
v -16 10 -26.5
v 17 10 -26.5
v -20 3 27.5
v 20 3 27.5
v -18 3 26.5
v 18 3 26.5
v -19 3 25.5
v -18 3 25.5
v 18 3 25.5
v 19 3 25.5
v -20 3 -27.5
v -19 3 -27.5
v 19 3 -27.5
v 20 3 -27.5
v -18 8 26.5
v -17 8 26.5
v -19 8 25.5
v -18 8 25.5
v -17 8 25.5
v -19 8 24.5
v -18 8 24.5
v -17 9 26.5
v 18 9 26.5
v -17 9 25.5
v 18 9 25.5
v -19 9 -14.5
v -18 9 -14.5
v 18 9 -14.5
v 19 9 -14.5
v -19 9 -24.5
v -18 9 -24.5
v -16 9 -25.5
v 17 9 -25.5
v 18 9 -25.5
v 19 9 -25.5
v -16 9 -26.5
v 17 9 -26.5
v -20 10 25.5
v -19 10 25.5
v 19 10 25.5
v 20 10 25.5
v -20 10 -12.5
v -19 10 -12.5
v 19 10 -12.5
v 20 10 -12.5
v -20 10 -14.5
v -19 10 -14.5
v -18 10 -14.5
v 18 10 -14.5
v 19 10 -14.5
v 20 10 -14.5
v -14 10 -18.5
v -2 10 -18.5
v 2 10 -18.5
v 15 10 -18.5
v -15 10 -19.5
v -14 10 -19.5
v -2 10 -19.5
v -1 10 -19.5
v 1 10 -19.5
v 2 10 -19.5
v 15 10 -19.5
v 16 10 -19.5
v -15 10 -23.5
v -14 10 -23.5
v -2 10 -23.5
v -1 10 -23.5
v 1 10 -23.5
v 2 10 -23.5
v 15 10 -23.5
v 16 10 -23.5
v -18 10 -24.5
v -14 10 -24.5
v -2 10 -24.5
v 2 10 -24.5
v 15 10 -24.5
v 18 10 -24.5
v -19 11 25.5
v 19 11 25.5
v -19 11 -12.5
v 19 11 -12.5
v -19 11 -14.5
v 19 11 -14.5
v -14 11 -18.5
v -2 11 -18.5
v 2 11 -18.5
v 15 11 -18.5
v -14 11 -19.5
v -2 11 -19.5
v 2 11 -19.5
v 15 11 -19.5
v -15 12 -19.5
v -1 12 -19.5
v 1 12 -19.5
v 16 12 -19.5
v -15 12 -23.5
v -14 12 -23.5
v -2 12 -23.5
v -1 12 -23.5
v 1 12 -23.5
v 2 12 -23.5
v 15 12 -23.5
v 16 12 -23.5
v -19 12 -24.5
v -14 12 -24.5
v -2 12 -24.5
v 2 12 -24.5
v 15 12 -24.5
v 18 12 -24.5
v -19 12 -25.5
v 18 12 -25.5
v -19 15 -25.5
v 19 15 -25.5
v -19 15 -27.5
v 19 15 -27.5

# faces
f 3/6/1 2/6/1 1/6/1
f 4/6/1 2/6/1 3/6/1
f 8/4/1 6/4/1 5/4/1
f 9/3/1 7/3/1 6/3/1
f 9/4/1 6/4/1 8/4/1
f 10/3/1 7/3/1 9/3/1
f 13/2/1 12/2/1 11/2/1
f 14/2/1 12/2/1 13/2/1
f 15/2/1 12/2/1 14/2/1
f 16/2/1 12/2/1 15/2/1
f 17/2/1 12/2/1 16/2/1
f 21/4/1 19/4/1 18/4/1
f 22/3/1 20/3/1 19/3/1
f 22/4/1 19/4/1 21/4/1
f 23/3/1 20/3/1 22/3/1
f 24/2/1 12/2/1 17/2/1
f 25/2/1 12/2/1 24/2/1
f 26/2/1 12/2/1 25/2/1
f 27/2/1 12/2/1 26/2/1
f 32/7/1 29/7/1 28/7/1
f 33/7/1 29/7/1 32/7/1
f 34/7/1 31/7/1 30/7/1
f 35/7/1 31/7/1 34/7/1
f 38/2/1 37/2/1 36/2/1
f 39/2/1 37/2/1 38/2/1
f 41/5/1 40/5/1 39/5/1
f 42/5/1 40/5/1 41/5/1
f 45/2/1 42/2/1 41/2/1
f 46/2/1 42/2/1 45/2/1
f 47/2/1 44/2/1 43/2/1
f 48/2/1 44/2/1 47/2/1
f 51/2/1 50/2/1 49/2/1
f 52/2/1 50/2/1 51/2/1
f 55/2/1 54/2/1 53/2/1
f 56/2/1 54/2/1 55/2/1
f 57/1/1 56/1/1 55/1/1
f 58/1/1 56/1/1 57/1/1
f 63/1/1 60/1/1 59/1/1
f 64/1/1 60/1/1 63/1/1
f 65/2/1 62/2/1 61/2/1
f 66/2/1 62/2/1 65/2/1
f 67/1/1 66/1/1 65/1/1
f 68/1/1 66/1/1 67/1/1
f 71/2/1 70/2/1 69/2/1
f 72/2/1 70/2/1 71/2/1
f 73/1/1 72/1/1 71/1/1
f 74/1/1 72/1/1 73/1/1
f 79/1/1 76/1/1 75/1/1
f 80/1/1 76/1/1 79/1/1
f 81/2/1 78/2/1 77/2/1
f 82/2/1 78/2/1 81/2/1
f 83/1/1 82/1/1 81/1/1
f 84/1/1 82/1/1 83/1/1
f 89/7/1 86/7/1 85/7/1
f 90/7/1 86/7/1 89/7/1
f 91/7/1 88/7/1 87/7/1
f 92/7/1 88/7/1 91/7/1
f 95/2/1 94/2/1 93/2/1
f 96/2/1 94/2/1 95/2/1
f 97/4/2 98/4/2 99/4/2
f 97/4/2 99/4/2 100/4/2
f 100/4/2 99/4/2 101/4/2
f 102/7/2 103/7/2 106/7/2
f 106/7/2 103/7/2 107/7/2
f 104/7/2 105/7/2 108/7/2
f 108/7/2 105/7/2 109/7/2
f 110/2/2 111/2/2 112/2/2
f 112/2/2 111/2/2 113/2/2
f 114/1/2 115/1/2 118/1/2
f 118/1/2 115/1/2 119/1/2
f 116/2/2 117/2/2 120/2/2
f 120/2/2 117/2/2 121/2/2
f 120/1/2 121/1/2 122/1/2
f 122/1/2 121/1/2 123/1/2
f 124/2/2 125/2/2 126/2/2
f 126/2/2 125/2/2 127/2/2
f 126/1/2 127/1/2 128/1/2
f 128/1/2 127/1/2 129/1/2
f 130/1/2 131/1/2 134/1/2
f 134/1/2 131/1/2 135/1/2
f 132/2/2 133/2/2 136/2/2
f 136/2/2 133/2/2 137/2/2
f 136/1/2 137/1/2 138/1/2
f 138/1/2 137/1/2 139/1/2
f 140/2/2 141/2/2 142/2/2
f 142/2/2 141/2/2 143/2/2
f 142/1/2 143/1/2 144/1/2
f 144/1/2 143/1/2 145/1/2
f 146/7/2 147/7/2 150/7/2
f 150/7/2 147/7/2 151/7/2
f 148/7/2 149/7/2 152/7/2
f 152/7/2 149/7/2 153/7/2
f 154/2/2 155/2/2 156/2/2
f 156/2/2 155/2/2 157/2/2
f 158/2/2 159/2/2 160/2/2
f 160/2/2 159/2/2 161/2/2
f 161/2/2 159/2/2 162/2/2
f 162/2/2 159/2/2 163/2/2
f 164/2/2 165/2/2 166/2/2
f 166/2/2 165/2/2 167/2/2
f 167/2/2 165/2/2 168/2/2
f 168/2/2 165/2/2 169/2/2
f 169/2/2 165/2/2 170/2/2
f 171/4/2 172/4/2 174/4/2
f 172/3/2 173/3/2 175/3/2
f 174/4/2 172/4/2 175/4/2
f 175/3/2 173/3/2 176/3/2
f 170/2/2 165/2/2 177/2/2
f 177/2/2 165/2/2 178/2/2
f 179/6/2 180/6/2 181/6/2
f 181/6/2 180/6/2 182/6/2
f 183/4/2 184/4/2 186/4/2
f 184/3/2 185/3/2 187/3/2
f 186/4/2 184/4/2 187/4/2
f 187/3/2 185/3/2 188/3/2
f 191/6/3 190/6/3 189/6/3
f 192/6/3 190/6/3 191/6/3
f 195/2/3 194/2/3 193/2/3
f 197/2/3 195/2/3 193/2/3
f 197/2/3 196/2/3 195/2/3
f 198/2/3 196/2/3 197/2/3
f 202/4/3 200/4/3 199/4/3
f 203/4/3 200/4/3 202/4/3
f 204/4/3 200/4/3 203/4/3
f 208/2/3 202/2/3 201/2/3
f 208/2/3 203/2/3 202/2/3
f 209/2/3 203/2/3 208/2/3
f 211/4/3 205/4/3 204/4/3
f 212/5/3 210/5/3 209/5/3
f 213/2/3 211/2/3 210/2/3
f 213/5/3 210/5/3 212/5/3
f 214/7/3 207/7/3 206/7/3
f 215/7/3 207/7/3 214/7/3
f 218/7/3 217/7/3 216/7/3
f 219/7/3 217/7/3 218/7/3
f 221/2/3 211/2/3 213/2/3
f 222/4/3 205/4/3 211/4/3
f 222/2/3 211/2/3 221/2/3
f 223/2/3 221/2/3 220/2/3
f 224/2/3 221/2/3 223/2/3
f 225/4/3 222/4/3 221/4/3
f 225/2/3 221/2/3 224/2/3
f 226/4/3 205/4/3 222/4/3
f 226/4/3 222/4/3 225/4/3
f 227/4/3 205/4/3 226/4/3
f 228/4/3 225/4/3 224/4/3
f 228/4/3 226/4/3 225/4/3
f 229/4/3 226/4/3 228/4/3
f 233/2/3 231/2/3 230/2/3
f 234/4/3 232/4/3 231/4/3
f 234/2/3 231/2/3 233/2/3
f 235/4/3 232/4/3 234/4/3
f 238/1/3 237/1/3 236/1/3
f 239/1/3 237/1/3 238/1/3
f 242/1/3 241/1/3 240/1/3
f 243/1/3 241/1/3 242/1/3
f 247/2/3 245/2/3 244/2/3
f 248/1/3 246/1/3 245/1/3
f 248/2/3 245/2/3 247/2/3
f 250/1/3 246/1/3 248/1/3
f 251/2/3 250/2/3 249/2/3
f 252/1/3 246/1/3 250/1/3
f 252/2/3 250/2/3 251/2/3
f 253/1/3 246/1/3 252/1/3
f 257/2/3 255/2/3 254/2/3
f 258/1/3 256/1/3 255/1/3
f 258/2/3 255/2/3 257/2/3
f 260/1/3 256/1/3 258/1/3
f 261/2/3 260/2/3 259/2/3
f 262/1/3 256/1/3 260/1/3
f 262/2/3 260/2/3 261/2/3
f 263/1/3 256/1/3 262/1/3
f 266/7/3 265/7/3 264/7/3
f 267/7/3 265/7/3 266/7/3
f 270/7/3 269/7/3 268/7/3
f 271/7/3 269/7/3 270/7/3
f 274/2/3 273/2/3 272/2/3
f 275/2/3 273/2/3 274/2/3
f 276/2/3 273/2/3 275/2/3
f 277/2/3 273/2/3 276/2/3
f 278/2/3 273/2/3 277/2/3
f 282/2/3 280/2/3 279/2/3
f 282/2/3 281/2/3 280/2/3
f 283/2/3 281/2/3 282/2/3
f 284/2/3 281/2/3 283/2/3
f 288/2/3 286/2/3 285/2/3
f 288/2/3 287/2/3 286/2/3
f 289/2/3 287/2/3 288/2/3
f 293/2/3 291/2/3 290/2/3
f 294/2/3 293/2/3 292/2/3
f 295/2/3 291/2/3 293/2/3
f 295/2/3 293/2/3 294/2/3
f 298/5/3 297/5/3 296/5/3
f 299/5/3 297/5/3 298/5/3
f 300/7/4 301/7/4 302/7/4
f 302/7/4 301/7/4 303/7/4
f 304/7/4 305/7/4 306/7/4
f 306/7/4 305/7/4 307/7/4
f 308/3/4 309/3/4 310/3/4
f 310/3/4 309/3/4 311/3/4
f 311/3/4 309/3/4 312/3/4
f 311/4/4 312/4/4 314/4/4
f 312/3/4 313/3/4 315/3/4
f 314/4/4 312/4/4 315/4/4
f 315/3/4 313/3/4 317/3/4
f 316/4/4 317/4/4 319/4/4
f 317/3/4 313/3/4 320/3/4
f 319/4/4 317/4/4 320/4/4
f 320/3/4 313/3/4 321/3/4
f 318/3/4 319/3/4 322/3/4
f 319/3/4 320/3/4 322/3/4
f 322/3/4 320/3/4 323/3/4
f 324/2/4 325/2/4 327/2/4
f 325/1/4 326/1/4 328/1/4
f 327/2/4 325/2/4 328/2/4
f 328/1/4 326/1/4 329/1/4
f 330/2/4 331/2/4 333/2/4
f 331/1/4 332/1/4 334/1/4
f 333/2/4 331/2/4 334/2/4
f 334/1/4 332/1/4 335/1/4
f 336/2/4 337/2/4 339/2/4
f 337/1/4 338/1/4 340/1/4
f 339/2/4 337/2/4 340/2/4
f 340/1/4 338/1/4 341/1/4
f 342/2/4 343/2/4 345/2/4
f 343/1/4 344/1/4 346/1/4
f 345/2/4 343/2/4 346/2/4
f 346/1/4 344/1/4 347/1/4
f 348/7/4 349/7/4 350/7/4
f 350/7/4 349/7/4 351/7/4
f 352/2/4 353/2/4 356/2/4
f 356/2/4 353/2/4 357/2/4
f 354/7/4 355/7/4 358/7/4
f 358/7/4 355/7/4 359/7/4
f 360/6/4 361/6/4 362/6/4
f 360/6/4 362/6/4 364/6/4
f 362/2/4 363/2/4 364/2/4
f 364/2/4 363/2/4 365/2/4
f 360/6/4 364/6/4 366/6/4
f 364/5/4 365/5/4 366/5/4
f 365/2/4 363/2/4 367/2/4
f 366/5/4 365/5/4 367/5/4
f 360/6/4 366/6/4 368/6/4
f 366/2/4 367/2/4 368/2/4
f 367/2/4 363/2/4 369/2/4
f 368/2/4 367/2/4 369/2/4
f 360/6/4 368/6/4 370/6/4
f 370/6/4 368/6/4 371/6/4
f 376/7/5 373/7/5 372/7/5
f 377/7/5 373/7/5 376/7/5
f 378/7/5 375/7/5 374/7/5
f 379/7/5 375/7/5 378/7/5
f 384/7/5 381/7/5 380/7/5
f 385/7/5 381/7/5 384/7/5
f 386/7/5 383/7/5 382/7/5
f 387/7/5 383/7/5 386/7/5
f 390/6/5 389/6/5 388/6/5
f 391/6/5 389/6/5 390/6/5
f 392/6/5 389/6/5 391/6/5
f 393/6/5 389/6/5 392/6/5
f 394/6/5 390/6/5 388/6/5
f 395/6/5 392/6/5 391/6/5
f 396/6/5 392/6/5 395/6/5
f 397/6/5 389/6/5 393/6/5
f 398/6/5 396/6/5 395/6/5
f 398/6/5 397/6/5 396/6/5
f 398/6/5 394/6/5 388/6/5
f 398/6/5 395/6/5 394/6/5
f 399/6/5 397/6/5 398/6/5
f 400/6/5 397/6/5 399/6/5
f 401/6/5 389/6/5 397/6/5
f 401/6/5 397/6/5 400/6/5
f 402/6/5 398/6/5 388/6/5
f 403/6/5 400/6/5 399/6/5
f 404/6/5 400/6/5 403/6/5
f 405/6/5 389/6/5 401/6/5
f 406/6/5 402/6/5 388/6/5
f 406/6/5 405/6/5 404/6/5
f 406/6/5 404/6/5 403/6/5
f 406/6/5 403/6/5 402/6/5
f 407/6/5 389/6/5 405/6/5
f 407/6/5 405/6/5 406/6/5
f 412/4/5 409/4/5 408/4/5
f 413/4/5 409/4/5 412/4/5
f 414/4/5 411/4/5 410/4/5
f 415/4/5 411/4/5 414/4/5
f 416/3/5 413/3/5 412/3/5
f 417/3/5 413/3/5 416/3/5
f 418/3/5 415/3/5 414/3/5
f 419/3/5 415/3/5 418/3/5
f 422/4/5 421/4/5 420/4/5
f 423/4/5 421/4/5 422/4/5
f 426/2/5 425/2/5 424/2/5
f 427/2/5 425/2/5 426/2/5
f 428/6/6 429/6/6 430/6/6
f 430/6/6 429/6/6 431/6/6
f 428/6/6 430/6/6 432/6/6
f 432/6/6 430/6/6 433/6/6
f 431/6/6 429/6/6 434/6/6
f 434/6/6 429/6/6 435/6/6
f 428/6/6 432/6/6 436/6/6
f 436/6/6 432/6/6 437/6/6
f 435/6/6 429/6/6 438/6/6
f 438/6/6 429/6/6 439/6/6
f 440/2/6 441/2/6 443/2/6
f 443/2/6 441/2/6 444/2/6
f 442/2/6 443/2/6 445/2/6
f 445/2/6 443/2/6 446/2/6
f 447/2/6 448/2/6 449/2/6
f 449/2/6 448/2/6 450/2/6
f 451/2/6 452/2/6 455/2/6
f 455/2/6 452/2/6 456/2/6
f 453/2/6 454/2/6 459/2/6
f 459/2/6 454/2/6 460/2/6
f 457/2/6 458/2/6 461/2/6
f 461/2/6 458/2/6 462/2/6
f 463/4/6 464/4/6 467/4/6
f 467/4/6 464/4/6 468/4/6
f 465/4/6 466/4/6 469/4/6
f 469/4/6 466/4/6 470/4/6
f 467/3/6 468/3/6 471/3/6
f 471/3/6 468/3/6 472/3/6
f 469/3/6 470/3/6 475/3/6
f 475/3/6 470/3/6 476/3/6
f 473/2/6 474/2/6 477/2/6
f 477/2/6 474/2/6 478/2/6
f 478/2/6 474/2/6 479/2/6
f 479/2/6 474/2/6 480/2/6
f 473/2/6 477/2/6 481/2/6
f 481/2/6 477/2/6 482/2/6
f 478/2/6 479/2/6 483/2/6
f 483/2/6 479/2/6 484/2/6
f 484/2/6 479/2/6 485/2/6
f 485/2/6 479/2/6 486/2/6
f 480/2/6 474/2/6 487/2/6
f 487/2/6 474/2/6 488/2/6
f 473/2/6 481/2/6 489/2/6
f 484/2/6 485/2/6 492/2/6
f 492/2/6 485/2/6 493/2/6
f 488/2/6 474/2/6 496/2/6
f 489/2/6 490/2/6 497/2/6
f 473/2/6 489/2/6 497/2/6
f 497/2/6 490/2/6 498/2/6
f 493/2/6 494/2/6 499/2/6
f 491/2/6 492/2/6 499/2/6
f 492/2/6 493/2/6 499/2/6
f 499/2/6 494/2/6 500/2/6
f 495/2/6 496/2/6 501/2/6
f 496/2/6 474/2/6 502/2/6
f 501/2/6 496/2/6 502/2/6
f 503/4/6 504/4/6 505/4/6
f 505/4/6 504/4/6 506/4/6
f 505/3/6 506/3/6 507/3/6
f 507/3/6 506/3/6 508/3/6
f 509/1/6 510/1/6 513/1/6
f 513/1/6 510/1/6 514/1/6
f 511/1/6 512/1/6 515/1/6
f 515/1/6 512/1/6 516/1/6
f 517/1/6 518/1/6 521/1/6
f 521/1/6 518/1/6 522/1/6
f 522/1/6 518/1/6 523/1/6
f 523/1/6 518/1/6 524/1/6
f 519/1/6 520/1/6 525/1/6
f 525/1/6 520/1/6 526/1/6
f 526/1/6 520/1/6 527/1/6
f 527/1/6 520/1/6 528/1/6
f 522/1/6 523/1/6 530/1/6
f 530/1/6 523/1/6 531/1/6
f 526/1/6 527/1/6 532/1/6
f 532/1/6 527/1/6 533/1/6
f 532/2/6 533/2/6 535/2/6
f 533/2/6 534/2/6 535/2/6
f 531/2/6 532/2/6 535/2/6
f 530/2/6 531/2/6 535/2/6
f 529/2/6 530/2/6 535/2/6
f 535/2/6 534/2/6 536/2/6
f 537/2/6 538/2/6 539/2/6
f 539/2/6 538/2/6 540/2/6
