# MagicaVoxel @ Ephtracy

# group
g Chair

# material
mtllib Chair.mtl
usemtl palette

# normals
vn -1 0 0
vn 1 0 0
vn 0 0 1
vn 0 0 -1
vn 0 -1 0
vn 0 1 0

# texcoords
vt 0.365234 0.5
vt 0.552734 0.5

# verts
v -5 5 4
v -5 5 -4
v -5 6 5
v -5 6 4
v -5 6 -4
v -5 15 5
v -5 15 4
v -4 0 4
v -4 0 3
v -4 0 -3
v -4 0 -4
v -4 5 5
v -4 5 4
v -4 5 3
v -4 5 -3
v -4 5 -4
v -4 5 -5
v -4 6 5
v -4 6 4
v -4 6 -4
v -4 6 -5
v 3 0 4
v 3 0 3
v 3 0 -3
v 3 0 -4
v 3 5 4
v 3 5 3
v 3 5 -3
v 3 5 -4
v 4 8 5
v 4 8 4
v 4 11 5
v 4 11 4
v 4 14 5
v 4 14 4
v 4 15 5
v 4 15 4
v -4 8 5
v -4 8 4
v -4 11 5
v -4 11 4
v -4 14 5
v -4 14 4
v -4 15 5
v -4 15 4
v -3 0 4
v -3 0 3
v -3 0 -3
v -3 0 -4
v -3 5 4
v -3 5 3
v -3 5 -3
v -3 5 -4
v 4 0 4
v 4 0 3
v 4 0 -3
v 4 0 -4
v 4 5 5
v 4 5 4
v 4 5 3
v 4 5 -3
v 4 5 -4
v 4 5 -5
v 4 6 5
v 4 6 4
v 4 6 -4
v 4 6 -5
v 5 5 4
v 5 5 -4
v 5 6 5
v 5 6 4
v 5 6 -4
v 5 15 5
v 5 15 4
v -5 6 5
v -5 15 5
v -4 5 5
v -4 6 5
v -4 8 5
v -4 11 5
v -4 14 5
v -4 15 5
v 4 5 5
v 4 6 5
v 4 8 5
v 4 11 5
v 4 14 5
v 4 15 5
v 5 6 5
v 5 15 5
v -5 5 4
v -5 6 4
v -4 0 4
v -4 5 4
v -4 6 4
v -3 0 4
v -3 5 4
v 3 0 4
v 3 5 4
v 4 0 4
v 4 5 4
v 4 6 4
v 5 5 4
v 5 6 4
v -4 0 -3
v -4 5 -3
v -3 0 -3
v -3 5 -3
v 3 0 -3
v 3 5 -3
v 4 0 -3
v 4 5 -3
v -5 6 4
v -5 15 4
v -4 8 4
v -4 11 4
v -4 14 4
v -4 15 4
v 4 8 4
v 4 11 4
v 4 14 4
v 4 15 4
v 5 6 4
v 5 15 4
v -4 0 3
v -4 5 3
v -3 0 3
v -3 5 3
v 3 0 3
v 3 5 3
v 4 0 3
v 4 5 3
v -5 5 -4
v -5 6 -4
v -4 0 -4
v -4 5 -4
v -4 6 -4
v -3 0 -4
v -3 5 -4
v 3 0 -4
v 3 5 -4
v 4 0 -4
v 4 5 -4
v 4 6 -4
v 5 5 -4
v 5 6 -4
v -4 5 -5
v -4 6 -5
v 4 5 -5
v 4 6 -5
v -4 0 4
v -3 0 4
v 3 0 4
v 4 0 4
v -4 0 3
v -3 0 3
v 3 0 3
v 4 0 3
v -4 0 -3
v -3 0 -3
v 3 0 -3
v 4 0 -3
v -4 0 -4
v -3 0 -4
v 3 0 -4
v 4 0 -4
v -4 5 5
v 4 5 5
v -5 5 4
v -4 5 4
v -3 5 4
v 3 5 4
v 4 5 4
v 5 5 4
v -4 5 3
v -3 5 3
v 3 5 3
v 4 5 3
v -4 5 -3
v -3 5 -3
v 3 5 -3
v 4 5 -3
v -5 5 -4
v -4 5 -4
v -3 5 -4
v 3 5 -4
v 4 5 -4
v 5 5 -4
v -4 5 -5
v 4 5 -5
v -5 6 5
v -4 6 5
v 4 6 5
v 5 6 5
v -5 6 4
v -4 6 4
v 4 6 4
v 5 6 4
v -4 11 5
v 4 11 5
v -4 11 4
v 4 11 4
v -5 6 4
v 5 6 4
v -5 6 -4
v -4 6 -4
v 4 6 -4
v 5 6 -4
v -4 6 -5
v 4 6 -5
v -4 8 5
v 4 8 5
v -4 8 4
v 4 8 4
v -4 14 5
v 4 14 5
v -4 14 4
v 4 14 4
v -5 15 5
v -4 15 5
v 4 15 5
v 5 15 5
v -5 15 4
v -4 15 4
v 4 15 4
v 5 15 4

# faces
f 4/2/1 2/2/1 1/2/1
f 5/2/1 2/2/1 4/2/1
f 6/2/1 4/2/1 3/2/1
f 7/2/1 4/2/1 6/2/1
f 13/1/1 9/1/1 8/1/1
f 14/1/1 9/1/1 13/1/1
f 15/1/1 11/1/1 10/1/1
f 16/1/1 11/1/1 15/1/1
f 18/2/1 13/2/1 12/2/1
f 19/2/1 13/2/1 18/2/1
f 20/2/1 17/2/1 16/2/1
f 21/2/1 17/2/1 20/2/1
f 26/1/1 23/1/1 22/1/1
f 27/1/1 23/1/1 26/1/1
f 28/1/1 25/1/1 24/1/1
f 29/1/1 25/1/1 28/1/1
f 32/2/1 31/2/1 30/2/1
f 33/2/1 31/2/1 32/2/1
f 36/2/1 35/2/1 34/2/1
f 37/2/1 35/2/1 36/2/1
f 38/2/2 39/2/2 40/2/2
f 40/2/2 39/2/2 41/2/2
f 42/2/2 43/2/2 44/2/2
f 44/2/2 43/2/2 45/2/2
f 46/1/2 47/1/2 50/1/2
f 50/1/2 47/1/2 51/1/2
f 48/1/2 49/1/2 52/1/2
f 52/1/2 49/1/2 53/1/2
f 54/1/2 55/1/2 59/1/2
f 59/1/2 55/1/2 60/1/2
f 56/1/2 57/1/2 61/1/2
f 61/1/2 57/1/2 62/1/2
f 58/2/2 59/2/2 64/2/2
f 64/2/2 59/2/2 65/2/2
f 62/2/2 63/2/2 66/2/2
f 66/2/2 63/2/2 67/2/2
f 68/2/2 69/2/2 71/2/2
f 71/2/2 69/2/2 72/2/2
f 70/2/2 71/2/2 73/2/2
f 73/2/2 71/2/2 74/2/2
f 78/2/3 76/2/3 75/2/3
f 79/2/3 76/2/3 78/2/3
f 80/2/3 76/2/3 79/2/3
f 81/2/3 76/2/3 80/2/3
f 82/2/3 76/2/3 81/2/3
f 83/2/3 78/2/3 77/2/3
f 83/2/3 79/2/3 78/2/3
f 84/2/3 79/2/3 83/2/3
f 85/2/3 79/2/3 84/2/3
f 86/2/3 81/2/3 80/2/3
f 87/2/3 81/2/3 86/2/3
f 89/2/3 85/2/3 84/2/3
f 89/2/3 88/2/3 87/2/3
f 89/2/3 87/2/3 86/2/3
f 89/2/3 86/2/3 85/2/3
f 90/2/3 88/2/3 89/2/3
f 94/2/3 92/2/3 91/2/3
f 95/2/3 92/2/3 94/2/3
f 96/1/3 94/1/3 93/1/3
f 97/1/3 94/1/3 96/1/3
f 100/1/3 99/1/3 98/1/3
f 101/1/3 99/1/3 100/1/3
f 103/2/3 102/2/3 101/2/3
f 104/2/3 102/2/3 103/2/3
f 107/1/3 106/1/3 105/1/3
f 108/1/3 106/1/3 107/1/3
f 111/1/3 110/1/3 109/1/3
f 112/1/3 110/1/3 111/1/3
f 113/2/4 114/2/4 115/2/4
f 115/2/4 114/2/4 116/2/4
f 116/2/4 114/2/4 117/2/4
f 117/2/4 114/2/4 118/2/4
f 113/2/4 115/2/4 119/2/4
f 116/2/4 117/2/4 120/2/4
f 120/2/4 117/2/4 121/2/4
f 113/2/4 119/2/4 123/2/4
f 121/2/4 122/2/4 123/2/4
f 120/2/4 121/2/4 123/2/4
f 119/2/4 120/2/4 123/2/4
f 123/2/4 122/2/4 124/2/4
f 125/1/4 126/1/4 127/1/4
f 127/1/4 126/1/4 128/1/4
f 129/1/4 130/1/4 131/1/4
f 131/1/4 130/1/4 132/1/4
f 133/2/4 134/2/4 136/2/4
f 136/2/4 134/2/4 137/2/4
f 135/1/4 136/1/4 138/1/4
f 138/1/4 136/1/4 139/1/4
f 140/1/4 141/1/4 142/1/4
f 142/1/4 141/1/4 143/1/4
f 143/2/4 144/2/4 145/2/4
f 145/2/4 144/2/4 146/2/4
f 147/2/4 148/2/4 149/2/4
f 149/2/4 148/2/4 150/2/4
f 155/1/5 152/1/5 151/1/5
f 156/1/5 152/1/5 155/1/5
f 157/1/5 154/1/5 153/1/5
f 158/1/5 154/1/5 157/1/5
f 163/1/5 160/1/5 159/1/5
f 164/1/5 160/1/5 163/1/5
f 165/1/5 162/1/5 161/1/5
f 166/1/5 162/1/5 165/1/5
f 170/2/5 168/2/5 167/2/5
f 171/2/5 168/2/5 170/2/5
f 172/2/5 168/2/5 171/2/5
f 173/2/5 168/2/5 172/2/5
f 175/2/5 170/2/5 169/2/5
f 176/2/5 172/2/5 171/2/5
f 177/2/5 172/2/5 176/2/5
f 178/2/5 174/2/5 173/2/5
f 179/2/5 177/2/5 176/2/5
f 179/2/5 178/2/5 177/2/5
f 179/2/5 175/2/5 169/2/5
f 179/2/5 176/2/5 175/2/5
f 180/2/5 178/2/5 179/2/5
f 181/2/5 178/2/5 180/2/5
f 182/2/5 174/2/5 178/2/5
f 182/2/5 178/2/5 181/2/5
f 183/2/5 179/2/5 169/2/5
f 184/2/5 179/2/5 183/2/5
f 185/2/5 181/2/5 180/2/5
f 186/2/5 181/2/5 185/2/5
f 187/2/5 174/2/5 182/2/5
f 188/2/5 174/2/5 187/2/5
f 189/2/5 186/2/5 185/2/5
f 189/2/5 187/2/5 186/2/5
f 189/2/5 185/2/5 184/2/5
f 190/2/5 187/2/5 189/2/5
f 195/2/5 192/2/5 191/2/5
f 196/2/5 192/2/5 195/2/5
f 197/2/5 194/2/5 193/2/5
f 198/2/5 194/2/5 197/2/5
f 201/2/5 200/2/5 199/2/5
f 202/2/5 200/2/5 201/2/5
f 203/2/6 204/2/6 205/2/6
f 205/2/6 204/2/6 206/2/6
f 206/2/6 204/2/6 207/2/6
f 207/2/6 204/2/6 208/2/6
f 206/2/6 207/2/6 209/2/6
f 209/2/6 207/2/6 210/2/6
f 211/2/6 212/2/6 213/2/6
f 213/2/6 212/2/6 214/2/6
f 215/2/6 216/2/6 217/2/6
f 217/2/6 216/2/6 218/2/6
f 219/2/6 220/2/6 223/2/6
f 223/2/6 220/2/6 224/2/6
f 221/2/6 222/2/6 225/2/6
f 225/2/6 222/2/6 226/2/6
