# MagicaVoxel @ Ephtracy

# group
g LongDesk2

# material
mtllib LongDesk2.mtl
usemtl palette

# normals
vn -1 0 0
vn 1 0 0
vn 0 0 1
vn 0 0 -1
vn 0 -1 0
vn 0 1 0

# texcoords
vt 0.255859 0.5
vt 0.318359 0.5
vt 0.345703 0.5
vt 0.365234 0.5

# verts
v -8.5 11 51
v -8.5 11 -51
v -8.5 12 51
v -8.5 12 -51
v -7.5 10 52
v -7.5 10 -52
v -7.5 11 52
v -7.5 11 51
v -7.5 11 -51
v -7.5 11 -52
v -7.5 12 52
v -7.5 12 51
v -7.5 12 -51
v -7.5 12 -52
v -6.5 10 53
v -6.5 10 52
v -6.5 10 -52
v -6.5 10 -53
v -6.5 11 53
v -6.5 11 52
v -6.5 11 -52
v -6.5 11 -53
v -6.5 12 53
v -6.5 12 52
v -6.5 12 -52
v -6.5 12 -53
v -5.5 10 54
v -5.5 10 53
v -5.5 10 -53
v -5.5 10 -54
v -5.5 11 54
v -5.5 11 53
v -5.5 11 -53
v -5.5 11 -54
v -5.5 12 54
v -5.5 12 53
v -5.5 12 -53
v -5.5 12 -54
v -4.5 10 55
v -4.5 10 54
v -4.5 10 -54
v -4.5 10 -55
v -4.5 11 55
v -4.5 11 54
v -4.5 11 -54
v -4.5 11 -55
v -4.5 12 55
v -4.5 12 54
v -4.5 12 -54
v -4.5 12 -55
v -0.5 0 53
v -0.5 0 -53
v -0.5 2 53
v -0.5 2 -53
v -0.5 10 53
v -0.5 10 -53
v 1.5 0 55
v 1.5 0 53
v 1.5 0 -53
v 1.5 0 -55
v 1.5 2 55
v 1.5 2 53
v 1.5 2 -53
v 1.5 2 -55
v 1.5 10 55
v 1.5 10 53
v 1.5 10 -53
v 1.5 10 -55
v 5.5 11 22
v 5.5 11 3
v 5.5 11 -0
v 5.5 11 -20
v 5.5 12 22
v 5.5 12 3
v 5.5 12 -0
v 5.5 12 -20
v -5.5 11 22
v -5.5 11 3
v -5.5 11 -0
v -5.5 11 -20
v -5.5 12 22
v -5.5 12 3
v -5.5 12 -0
v -5.5 12 -20
v 4.5 0 55
v 4.5 0 54
v 4.5 0 -54
v 4.5 0 -55
v 4.5 2 55
v 4.5 2 54
v 4.5 2 -54
v 4.5 2 -55
v 4.5 10 55
v 4.5 10 54
v 4.5 10 -54
v 4.5 10 -55
v 4.5 11 55
v 4.5 11 54
v 4.5 11 -54
v 4.5 11 -55
v 4.5 12 55
v 4.5 12 54
v 4.5 12 -54
v 4.5 12 -55
v 5.5 0 54
v 5.5 0 53
v 5.5 0 -53
v 5.5 0 -54
v 5.5 2 54
v 5.5 2 53
v 5.5 2 -53
v 5.5 2 -54
v 5.5 10 54
v 5.5 10 53
v 5.5 10 -53
v 5.5 10 -54
v 5.5 11 54
v 5.5 11 53
v 5.5 11 -53
v 5.5 11 -54
v 5.5 12 54
v 5.5 12 53
v 5.5 12 -53
v 5.5 12 -54
v 6.5 0 53
v 6.5 0 -53
v 6.5 2 53
v 6.5 2 -53
v 6.5 9 52
v 6.5 9 -52
v 6.5 10 53
v 6.5 10 52
v 6.5 10 -52
v 6.5 10 -53
v 6.5 11 53
v 6.5 11 52
v 6.5 11 -52
v 6.5 11 -53
v 6.5 12 53
v 6.5 12 52
v 6.5 12 -52
v 6.5 12 -53
v 7.5 9 52
v 7.5 9 -52
v 7.5 10 50
v 7.5 10 -50
v 7.5 11 52
v 7.5 11 51
v 7.5 11 50
v 7.5 11 -50
v 7.5 11 -51
v 7.5 11 -52
v 7.5 12 52
v 7.5 12 51
v 7.5 12 -51
v 7.5 12 -52
v 8.5 10 50
v 8.5 10 -50
v 8.5 11 51
v 8.5 11 50
v 8.5 11 -50
v 8.5 11 -51
v 8.5 12 51
v 8.5 12 -51
v -4.5 10 55
v -4.5 11 55
v -4.5 12 55
v 1.5 0 55
v 1.5 2 55
v 1.5 10 55
v 4.5 0 55
v 4.5 2 55
v 4.5 10 55
v 4.5 11 55
v 4.5 12 55
v -5.5 10 54
v -5.5 11 54
v -5.5 12 54
v -4.5 10 54
v -4.5 11 54
v -4.5 12 54
v 4.5 0 54
v 4.5 2 54
v 4.5 10 54
v 4.5 11 54
v 4.5 12 54
v 5.5 0 54
v 5.5 2 54
v 5.5 10 54
v 5.5 11 54
v 5.5 12 54
v -6.5 10 53
v -6.5 11 53
v -6.5 12 53
v -5.5 10 53
v -5.5 11 53
v -5.5 12 53
v -0.5 0 53
v -0.5 2 53
v -0.5 10 53
v 1.5 0 53
v 1.5 2 53
v 1.5 10 53
v 5.5 0 53
v 5.5 2 53
v 5.5 10 53
v 5.5 11 53
v 5.5 12 53
v 6.5 0 53
v 6.5 2 53
v 6.5 10 53
v 6.5 11 53
v 6.5 12 53
v -7.5 10 52
v -7.5 11 52
v -7.5 12 52
v -6.5 10 52
v -6.5 11 52
v -6.5 12 52
v 6.5 9 52
v 6.5 10 52
v 6.5 11 52
v 6.5 12 52
v 7.5 9 52
v 7.5 11 52
v 7.5 12 52
v -8.5 11 51
v -8.5 12 51
v -7.5 11 51
v -7.5 12 51
v 7.5 11 51
v 7.5 12 51
v 8.5 11 51
v 8.5 12 51
v 7.5 10 50
v 7.5 11 50
v 8.5 10 50
v 8.5 11 50
v -5.5 11 3
v -5.5 12 3
v 5.5 11 3
v 5.5 12 3
v -5.5 11 -20
v -5.5 12 -20
v 5.5 11 -20
v 5.5 12 -20
v -5.5 11 22
v -5.5 12 22
v 5.5 11 22
v 5.5 12 22
v -5.5 11 -0
v -5.5 12 -0
v 5.5 11 -0
v 5.5 12 -0
v 7.5 10 -50
v 7.5 11 -50
v 8.5 10 -50
v 8.5 11 -50
v -8.5 11 -51
v -8.5 12 -51
v -7.5 11 -51
v -7.5 12 -51
v 7.5 11 -51
v 7.5 12 -51
v 8.5 11 -51
v 8.5 12 -51
v -7.5 10 -52
v -7.5 11 -52
v -7.5 12 -52
v -6.5 10 -52
v -6.5 11 -52
v -6.5 12 -52
v 6.5 9 -52
v 6.5 10 -52
v 6.5 11 -52
v 6.5 12 -52
v 7.5 9 -52
v 7.5 11 -52
v 7.5 12 -52
v -6.5 10 -53
v -6.5 11 -53
v -6.5 12 -53
v -5.5 10 -53
v -5.5 11 -53
v -5.5 12 -53
v -0.5 0 -53
v -0.5 2 -53
v -0.5 10 -53
v 1.5 0 -53
v 1.5 2 -53
v 1.5 10 -53
v 5.5 0 -53
v 5.5 2 -53
v 5.5 10 -53
v 5.5 11 -53
v 5.5 12 -53
v 6.5 0 -53
v 6.5 2 -53
v 6.5 10 -53
v 6.5 11 -53
v 6.5 12 -53
v -5.5 10 -54
v -5.5 11 -54
v -5.5 12 -54
v -4.5 10 -54
v -4.5 11 -54
v -4.5 12 -54
v 4.5 0 -54
v 4.5 2 -54
v 4.5 10 -54
v 4.5 11 -54
v 4.5 12 -54
v 5.5 0 -54
v 5.5 2 -54
v 5.5 10 -54
v 5.5 11 -54
v 5.5 12 -54
v -4.5 10 -55
v -4.5 11 -55
v -4.5 12 -55
v 1.5 0 -55
v 1.5 2 -55
v 1.5 10 -55
v 4.5 0 -55
v 4.5 2 -55
v 4.5 10 -55
v 4.5 11 -55
v 4.5 12 -55
v 1.5 0 55
v 4.5 0 55
v 4.5 0 54
v 5.5 0 54
v -0.5 0 53
v 1.5 0 53
v 5.5 0 53
v 6.5 0 53
v -0.5 0 -53
v 1.5 0 -53
v 5.5 0 -53
v 6.5 0 -53
v 4.5 0 -54
v 5.5 0 -54
v 1.5 0 -55
v 4.5 0 -55
v 6.5 9 52
v 7.5 9 52
v 6.5 9 -52
v 7.5 9 -52
v -4.5 10 55
v 1.5 10 55
v -5.5 10 54
v -4.5 10 54
v -6.5 10 53
v -5.5 10 53
v -0.5 10 53
v 1.5 10 53
v -7.5 10 52
v -6.5 10 52
v 7.5 10 50
v 8.5 10 50
v 7.5 10 -50
v 8.5 10 -50
v -7.5 10 -52
v -6.5 10 -52
v -6.5 10 -53
v -5.5 10 -53
v -0.5 10 -53
v 1.5 10 -53
v -5.5 10 -54
v -4.5 10 -54
v -4.5 10 -55
v 1.5 10 -55
v -8.5 11 51
v -7.5 11 51
v 7.5 11 51
v 8.5 11 51
v 7.5 11 50
v 8.5 11 50
v 7.5 11 -50
v 8.5 11 -50
v -8.5 11 -51
v -7.5 11 -51
v 7.5 11 -51
v 8.5 11 -51
v -5.5 11 22
v 5.5 11 22
v -5.5 11 3
v 5.5 11 3
v -5.5 11 -0
v 5.5 11 -0
v -5.5 11 -20
v 5.5 11 -20
v -4.5 12 55
v 4.5 12 55
v -5.5 12 54
v -4.5 12 54
v 4.5 12 54
v 5.5 12 54
v -6.5 12 53
v -5.5 12 53
v 5.5 12 53
v 6.5 12 53
v -7.5 12 52
v -6.5 12 52
v 6.5 12 52
v 7.5 12 52
v -8.5 12 51
v -7.5 12 51
v 7.5 12 51
v 8.5 12 51
v -5.5 12 22
v 5.5 12 22
v -5.5 12 3
v 5.5 12 3
v -5.5 12 -0
v 5.5 12 -0
v -5.5 12 -20
v 5.5 12 -20
v -8.5 12 -51
v -7.5 12 -51
v 7.5 12 -51
v 8.5 12 -51
v -7.5 12 -52
v -6.5 12 -52
v 6.5 12 -52
v 7.5 12 -52
v -6.5 12 -53
v -5.5 12 -53
v 5.5 12 -53
v 6.5 12 -53
v -5.5 12 -54
v -4.5 12 -54
v 4.5 12 -54
v 5.5 12 -54
v -4.5 12 -55
v 4.5 12 -55

# faces
f 3/3/1 2/3/1 1/3/1
f 4/3/1 2/3/1 3/3/1
f 7/4/1 6/4/1 5/4/1
f 8/4/1 6/4/1 7/4/1
f 9/4/1 6/4/1 8/4/1
f 10/4/1 6/4/1 9/4/1
f 11/3/1 8/3/1 7/3/1
f 12/3/1 8/3/1 11/3/1
f 13/3/1 10/3/1 9/3/1
f 14/3/1 10/3/1 13/3/1
f 19/4/1 16/4/1 15/4/1
f 20/4/1 16/4/1 19/4/1
f 21/4/1 18/4/1 17/4/1
f 22/4/1 18/4/1 21/4/1
f 23/3/1 20/3/1 19/3/1
f 24/3/1 20/3/1 23/3/1
f 25/3/1 22/3/1 21/3/1
f 26/3/1 22/3/1 25/3/1
f 31/4/1 28/4/1 27/4/1
f 32/4/1 28/4/1 31/4/1
f 33/4/1 30/4/1 29/4/1
f 34/4/1 30/4/1 33/4/1
f 35/3/1 32/3/1 31/3/1
f 36/3/1 32/3/1 35/3/1
f 37/3/1 34/3/1 33/3/1
f 38/3/1 34/3/1 37/3/1
f 43/4/1 40/4/1 39/4/1
f 44/4/1 40/4/1 43/4/1
f 45/4/1 42/4/1 41/4/1
f 46/4/1 42/4/1 45/4/1
f 47/3/1 44/3/1 43/3/1
f 48/3/1 44/3/1 47/3/1
f 49/3/1 46/3/1 45/3/1
f 50/3/1 46/3/1 49/3/1
f 53/3/1 52/3/1 51/3/1
f 54/3/1 52/3/1 53/3/1
f 55/1/1 54/1/1 53/1/1
f 56/1/1 54/1/1 55/1/1
f 61/3/1 58/3/1 57/3/1
f 62/3/1 58/3/1 61/3/1
f 63/3/1 60/3/1 59/3/1
f 64/3/1 60/3/1 63/3/1
f 65/2/1 62/2/1 61/2/1
f 66/2/1 62/2/1 65/2/1
f 67/2/1 64/2/1 63/2/1
f 68/2/1 64/2/1 67/2/1
f 73/3/1 70/3/1 69/3/1
f 74/3/1 70/3/1 73/3/1
f 75/3/1 72/3/1 71/3/1
f 76/3/1 72/3/1 75/3/1
f 77/3/2 78/3/2 81/3/2
f 81/3/2 78/3/2 82/3/2
f 79/3/2 80/3/2 83/3/2
f 83/3/2 80/3/2 84/3/2
f 85/3/2 86/3/2 89/3/2
f 89/3/2 86/3/2 90/3/2
f 87/3/2 88/3/2 91/3/2
f 91/3/2 88/3/2 92/3/2
f 89/2/2 90/2/2 93/2/2
f 93/2/2 90/2/2 94/2/2
f 91/2/2 92/2/2 95/2/2
f 95/2/2 92/2/2 96/2/2
f 93/4/2 94/4/2 97/4/2
f 97/4/2 94/4/2 98/4/2
f 95/4/2 96/4/2 99/4/2
f 99/4/2 96/4/2 100/4/2
f 97/3/2 98/3/2 101/3/2
f 101/3/2 98/3/2 102/3/2
f 99/3/2 100/3/2 103/3/2
f 103/3/2 100/3/2 104/3/2
f 105/3/2 106/3/2 109/3/2
f 109/3/2 106/3/2 110/3/2
f 107/3/2 108/3/2 111/3/2
f 111/3/2 108/3/2 112/3/2
f 109/1/2 110/1/2 113/1/2
f 113/1/2 110/1/2 114/1/2
f 111/1/2 112/1/2 115/1/2
f 115/1/2 112/1/2 116/1/2
f 113/4/2 114/4/2 117/4/2
f 117/4/2 114/4/2 118/4/2
f 115/4/2 116/4/2 119/4/2
f 119/4/2 116/4/2 120/4/2
f 117/3/2 118/3/2 121/3/2
f 121/3/2 118/3/2 122/3/2
f 119/3/2 120/3/2 123/3/2
f 123/3/2 120/3/2 124/3/2
f 125/3/2 126/3/2 127/3/2
f 127/3/2 126/3/2 128/3/2
f 127/1/2 128/1/2 129/1/2
f 129/1/2 128/1/2 130/1/2
f 127/1/2 129/1/2 131/1/2
f 131/1/2 129/1/2 132/1/2
f 130/1/2 128/1/2 133/1/2
f 133/1/2 128/1/2 134/1/2
f 131/4/2 132/4/2 135/4/2
f 135/4/2 132/4/2 136/4/2
f 133/4/2 134/4/2 137/4/2
f 137/4/2 134/4/2 138/4/2
f 135/3/2 136/3/2 139/3/2
f 139/3/2 136/3/2 140/3/2
f 137/3/2 138/3/2 141/3/2
f 141/3/2 138/3/2 142/3/2
f 143/4/2 144/4/2 145/4/2
f 145/4/2 144/4/2 146/4/2
f 143/4/2 145/4/2 147/4/2
f 147/4/2 145/4/2 148/4/2
f 148/4/2 145/4/2 149/4/2
f 146/4/2 144/4/2 150/4/2
f 150/4/2 144/4/2 151/4/2
f 151/4/2 144/4/2 152/4/2
f 147/3/2 148/3/2 153/3/2
f 153/3/2 148/3/2 154/3/2
f 151/3/2 152/3/2 155/3/2
f 155/3/2 152/3/2 156/3/2
f 157/4/2 158/4/2 160/4/2
f 160/4/2 158/4/2 161/4/2
f 159/3/2 160/3/2 163/3/2
f 161/3/2 162/3/2 163/3/2
f 160/3/2 161/3/2 163/3/2
f 163/3/2 162/3/2 164/3/2
f 170/4/3 166/4/3 165/4/3
f 171/3/3 169/3/3 168/3/3
f 172/2/3 170/2/3 169/2/3
f 172/3/3 169/3/3 171/3/3
f 173/4/3 166/4/3 170/4/3
f 173/2/3 170/2/3 172/2/3
f 174/3/3 167/3/3 166/3/3
f 174/4/3 166/4/3 173/4/3
f 175/3/3 167/3/3 174/3/3
f 179/4/3 177/4/3 176/4/3
f 180/3/3 178/3/3 177/3/3
f 180/4/3 177/4/3 179/4/3
f 181/3/3 178/3/3 180/3/3
f 187/3/3 183/3/3 182/3/3
f 188/1/3 184/1/3 183/1/3
f 188/3/3 183/3/3 187/3/3
f 189/4/3 185/4/3 184/4/3
f 189/1/3 184/1/3 188/1/3
f 190/3/3 186/3/3 185/3/3
f 190/4/3 185/4/3 189/4/3
f 191/3/3 186/3/3 190/3/3
f 195/4/3 193/4/3 192/4/3
f 196/3/3 194/3/3 193/3/3
f 196/4/3 193/4/3 195/4/3
f 197/3/3 194/3/3 196/3/3
f 201/3/3 199/3/3 198/3/3
f 202/1/3 200/1/3 199/1/3
f 202/3/3 199/3/3 201/3/3
f 203/1/3 200/1/3 202/1/3
f 209/3/3 205/3/3 204/3/3
f 210/1/3 206/1/3 205/1/3
f 210/3/3 205/3/3 209/3/3
f 211/4/3 207/4/3 206/4/3
f 211/1/3 206/1/3 210/1/3
f 212/3/3 208/3/3 207/3/3
f 212/4/3 207/4/3 211/4/3
f 213/3/3 208/3/3 212/3/3
f 217/4/3 215/4/3 214/4/3
f 218/3/3 216/3/3 215/3/3
f 218/4/3 215/4/3 217/4/3
f 219/3/3 216/3/3 218/3/3
f 224/4/3 221/4/3 220/4/3
f 224/4/3 222/4/3 221/4/3
f 225/3/3 223/3/3 222/3/3
f 225/4/3 222/4/3 224/4/3
f 226/3/3 223/3/3 225/3/3
f 229/3/3 228/3/3 227/3/3
f 230/3/3 228/3/3 229/3/3
f 233/3/3 232/3/3 231/3/3
f 234/3/3 232/3/3 233/3/3
f 237/4/3 236/4/3 235/4/3
f 238/4/3 236/4/3 237/4/3
f 241/3/3 240/3/3 239/3/3
f 242/3/3 240/3/3 241/3/3
f 245/3/3 244/3/3 243/3/3
f 246/3/3 244/3/3 245/3/3
f 247/3/4 248/3/4 249/3/4
f 249/3/4 248/3/4 250/3/4
f 251/3/4 252/3/4 253/3/4
f 253/3/4 252/3/4 254/3/4
f 255/4/4 256/4/4 257/4/4
f 257/4/4 256/4/4 258/4/4
f 259/3/4 260/3/4 261/3/4
f 261/3/4 260/3/4 262/3/4
f 263/3/4 264/3/4 265/3/4
f 265/3/4 264/3/4 266/3/4
f 267/4/4 268/4/4 270/4/4
f 268/3/4 269/3/4 271/3/4
f 270/4/4 268/4/4 271/4/4
f 271/3/4 269/3/4 272/3/4
f 273/4/4 274/4/4 277/4/4
f 274/4/4 275/4/4 277/4/4
f 275/3/4 276/3/4 278/3/4
f 277/4/4 275/4/4 278/4/4
f 278/3/4 276/3/4 279/3/4
f 280/4/4 281/4/4 283/4/4
f 281/3/4 282/3/4 284/3/4
f 283/4/4 281/4/4 284/4/4
f 284/3/4 282/3/4 285/3/4
f 286/3/4 287/3/4 289/3/4
f 287/1/4 288/1/4 290/1/4
f 289/3/4 287/3/4 290/3/4
f 290/1/4 288/1/4 291/1/4
f 292/3/4 293/3/4 297/3/4
f 293/1/4 294/1/4 298/1/4
f 297/3/4 293/3/4 298/3/4
f 294/4/4 295/4/4 299/4/4
f 298/1/4 294/1/4 299/1/4
f 295/3/4 296/3/4 300/3/4
f 299/4/4 295/4/4 300/4/4
f 300/3/4 296/3/4 301/3/4
f 302/4/4 303/4/4 305/4/4
f 303/3/4 304/3/4 306/3/4
f 305/4/4 303/4/4 306/4/4
f 306/3/4 304/3/4 307/3/4
f 308/3/4 309/3/4 313/3/4
f 309/1/4 310/1/4 314/1/4
f 313/3/4 309/3/4 314/3/4
f 310/4/4 311/4/4 315/4/4
f 314/1/4 310/1/4 315/1/4
f 311/3/4 312/3/4 316/3/4
f 315/4/4 311/4/4 316/4/4
f 316/3/4 312/3/4 317/3/4
f 318/4/4 319/4/4 323/4/4
f 321/3/4 322/3/4 324/3/4
f 322/2/4 323/2/4 325/2/4
f 324/3/4 322/3/4 325/3/4
f 323/4/4 319/4/4 326/4/4
f 325/2/4 323/2/4 326/2/4
f 319/3/4 320/3/4 327/3/4
f 326/4/4 319/4/4 327/4/4
f 327/3/4 320/3/4 328/3/4
f 331/3/5 330/3/5 329/3/5
f 334/3/5 331/3/5 329/3/5
f 334/3/5 332/3/5 331/3/5
f 335/3/5 332/3/5 334/3/5
f 337/3/5 334/3/5 333/3/5
f 337/3/5 336/3/5 335/3/5
f 337/3/5 335/3/5 334/3/5
f 338/3/5 336/3/5 337/3/5
f 339/3/5 336/3/5 338/3/5
f 340/3/5 336/3/5 339/3/5
f 341/3/5 339/3/5 338/3/5
f 342/3/5 339/3/5 341/3/5
f 343/3/5 341/3/5 338/3/5
f 344/3/5 341/3/5 343/3/5
f 347/4/5 346/4/5 345/4/5
f 348/4/5 346/4/5 347/4/5
f 352/4/5 350/4/5 349/4/5
f 354/4/5 352/4/5 351/4/5
f 355/4/5 350/4/5 352/4/5
f 355/4/5 352/4/5 354/4/5
f 356/4/5 350/4/5 355/4/5
f 358/4/5 354/4/5 353/4/5
f 358/4/5 355/4/5 354/4/5
f 361/4/5 360/4/5 359/4/5
f 362/4/5 360/4/5 361/4/5
f 363/4/5 358/4/5 357/4/5
f 364/4/5 355/4/5 358/4/5
f 364/4/5 358/4/5 363/4/5
f 365/4/5 355/4/5 364/4/5
f 366/4/5 355/4/5 365/4/5
f 367/4/5 355/4/5 366/4/5
f 369/4/5 368/4/5 367/4/5
f 369/4/5 367/4/5 366/4/5
f 370/4/5 368/4/5 369/4/5
f 371/4/5 368/4/5 370/4/5
f 372/4/5 368/4/5 371/4/5
f 377/3/5 376/3/5 375/3/5
f 378/3/5 376/3/5 377/3/5
f 381/3/5 374/3/5 373/3/5
f 382/3/5 374/3/5 381/3/5
f 383/3/5 380/3/5 379/3/5
f 384/3/5 380/3/5 383/3/5
f 385/4/6 386/4/6 387/4/6
f 387/4/6 386/4/6 388/4/6
f 389/4/6 390/4/6 391/4/6
f 391/4/6 390/4/6 392/4/6
f 393/3/6 394/3/6 396/3/6
f 396/3/6 394/3/6 397/3/6
f 395/3/6 396/3/6 400/3/6
f 397/3/6 398/3/6 400/3/6
f 396/3/6 397/3/6 400/3/6
f 400/3/6 398/3/6 401/3/6
f 399/3/6 400/3/6 404/3/6
f 401/3/6 402/3/6 404/3/6
f 400/3/6 401/3/6 404/3/6
f 404/3/6 402/3/6 405/3/6
f 403/3/6 404/3/6 408/3/6
f 405/3/6 406/3/6 408/3/6
f 404/3/6 405/3/6 408/3/6
f 408/3/6 406/3/6 409/3/6
f 407/3/6 408/3/6 411/3/6
f 409/3/6 410/3/6 411/3/6
f 408/3/6 409/3/6 411/3/6
f 411/3/6 410/3/6 412/3/6
f 407/3/6 411/3/6 413/3/6
f 412/3/6 410/3/6 414/3/6
f 407/3/6 413/3/6 415/3/6
f 413/3/6 414/3/6 415/3/6
f 414/3/6 410/3/6 416/3/6
f 415/3/6 414/3/6 416/3/6
f 407/3/6 415/3/6 417/3/6
f 416/3/6 410/3/6 418/3/6
f 407/3/6 417/3/6 419/3/6
f 417/3/6 418/3/6 419/3/6
f 419/3/6 418/3/6 420/3/6
f 418/3/6 410/3/6 421/3/6
f 420/3/6 418/3/6 421/3/6
f 421/3/6 410/3/6 422/3/6
f 420/3/6 421/3/6 423/3/6
f 423/3/6 421/3/6 424/3/6
f 424/3/6 421/3/6 425/3/6
f 425/3/6 421/3/6 426/3/6
f 424/3/6 425/3/6 427/3/6
f 427/3/6 425/3/6 428/3/6
f 428/3/6 425/3/6 429/3/6
f 429/3/6 425/3/6 430/3/6
f 428/3/6 429/3/6 431/3/6
f 431/3/6 429/3/6 432/3/6
f 432/3/6 429/3/6 433/3/6
f 433/3/6 429/3/6 434/3/6
f 432/3/6 433/3/6 435/3/6
f 435/3/6 433/3/6 436/3/6
