# MagicaVoxel @ Ephtracy

# group
g Pizza

# material
mtllib Pizza.mtl
usemtl palette

# normals
vn -1 0 0
vn 1 0 0
vn 0 0 1
vn 0 0 -1
vn 0 -1 0
vn 0 1 0

# texcoords
vt 0.0371094 0.5
vt 0.0605469 0.5
vt 0.841797 0.5

# verts
v -15.5 0 -10.5
v -15.5 0 -16.5
v -15.5 2 -10.5
v -15.5 2 -12.5
v -15.5 3 -12.5
v -15.5 3 -16.5
v -13.5 0 -4.5
v -13.5 0 -10.5
v -13.5 1 -4.5
v -13.5 1 -10.5
v -10.5 0 -1.5
v -10.5 0 -4.5
v -10.5 1 -1.5
v -10.5 1 -4.5
v -8.5 0 2.5
v -8.5 0 -1.5
v -8.5 1 2.5
v -8.5 1 -1.5
v -7.5 1 -4.5
v -7.5 1 -6.5
v -7.5 2 -4.5
v -7.5 2 -6.5
v -6.5 0 7.5
v -6.5 0 2.5
v -6.5 1 7.5
v -6.5 1 2.5
v -4.5 1 0.5
v -4.5 1 -2.5
v -4.5 2 0.5
v -4.5 2 -2.5
v -3.5 0 11.5
v -3.5 0 7.5
v -3.5 1 11.5
v -3.5 1 7.5
v -1.5 0 14.5
v -1.5 0 11.5
v -1.5 1 14.5
v -1.5 1 11.5
v -0.5 0 16.5
v -0.5 0 14.5
v -0.5 1 16.5
v -0.5 1 14.5
v -0.5 1 9.5
v -0.5 1 6.5
v -0.5 2 9.5
v -0.5 2 6.5
v 1.5 1 2.5
v 1.5 1 -2.5
v 1.5 2 2.5
v 1.5 2 -2.5
v 2.5 1 -6.5
v 2.5 1 -9.5
v 2.5 2 -6.5
v 2.5 2 -9.5
v -5.5 1 -4.5
v -5.5 1 -6.5
v -5.5 2 -4.5
v -5.5 2 -6.5
v -1.5 1 0.5
v -1.5 1 -2.5
v -1.5 2 0.5
v -1.5 2 -2.5
v 1.5 0 16.5
v 1.5 0 14.5
v 1.5 1 16.5
v 1.5 1 14.5
v 2.5 0 14.5
v 2.5 0 11.5
v 2.5 1 14.5
v 2.5 1 11.5
v 3.5 1 9.5
v 3.5 1 6.5
v 3.5 2 9.5
v 3.5 2 6.5
v 4.5 0 11.5
v 4.5 0 7.5
v 4.5 1 11.5
v 4.5 1 7.5
v 5.5 1 -6.5
v 5.5 1 -9.5
v 5.5 2 -6.5
v 5.5 2 -9.5
v 6.5 1 2.5
v 6.5 1 -2.5
v 6.5 2 2.5
v 6.5 2 -2.5
v 7.5 0 7.5
v 7.5 0 3.5
v 7.5 1 7.5
v 7.5 1 3.5
v 9.5 0 3.5
v 9.5 0 -2.5
v 9.5 1 3.5
v 9.5 1 -2.5
v 12.5 0 -2.5
v 12.5 0 -8.5
v 12.5 1 -2.5
v 12.5 1 -8.5
v 13.5 0 -8.5
v 13.5 0 -10.5
v 13.5 1 -8.5
v 13.5 1 -10.5
v 15.5 0 -10.5
v 15.5 0 -16.5
v 15.5 2 -10.5
v 15.5 2 -12.5
v 15.5 3 -12.5
v 15.5 3 -16.5
v -0.5 0 16.5
v -0.5 1 16.5
v 1.5 0 16.5
v 1.5 1 16.5
v -1.5 0 14.5
v -1.5 1 14.5
v -0.5 0 14.5
v -0.5 1 14.5
v 1.5 0 14.5
v 1.5 1 14.5
v 2.5 0 14.5
v 2.5 1 14.5
v -3.5 0 11.5
v -3.5 1 11.5
v -1.5 0 11.5
v -1.5 1 11.5
v 2.5 0 11.5
v 2.5 1 11.5
v 4.5 0 11.5
v 4.5 1 11.5
v -0.5 1 9.5
v -0.5 2 9.5
v 3.5 1 9.5
v 3.5 2 9.5
v -6.5 0 7.5
v -6.5 1 7.5
v -3.5 0 7.5
v -3.5 1 7.5
v 4.5 0 7.5
v 4.5 1 7.5
v 7.5 0 7.5
v 7.5 1 7.5
v 7.5 0 3.5
v 7.5 1 3.5
v 9.5 0 3.5
v 9.5 1 3.5
v -8.5 0 2.5
v -8.5 1 2.5
v -6.5 0 2.5
v -6.5 1 2.5
v 1.5 1 2.5
v 1.5 2 2.5
v 5.5 1 2.5
v 6.5 1 2.5
v 6.5 2 2.5
v -4.5 1 0.5
v -4.5 2 0.5
v -1.5 1 0.5
v -1.5 2 0.5
v -10.5 0 -1.5
v -10.5 1 -1.5
v -8.5 0 -1.5
v -8.5 1 -1.5
v 9.5 0 -2.5
v 9.5 1 -2.5
v 12.5 0 -2.5
v 12.5 1 -2.5
v -13.5 0 -4.5
v -13.5 1 -4.5
v -10.5 0 -4.5
v -10.5 1 -4.5
v -7.5 1 -4.5
v -7.5 2 -4.5
v -5.5 1 -4.5
v -5.5 2 -4.5
v 2.5 1 -6.5
v 2.5 2 -6.5
v 5.5 1 -6.5
v 5.5 2 -6.5
v 12.5 0 -8.5
v 12.5 1 -8.5
v 13.5 0 -8.5
v 13.5 1 -8.5
v -15.5 0 -10.5
v -15.5 2 -10.5
v -13.5 0 -10.5
v -13.5 1 -10.5
v -11.5 1 -10.5
v 10.5 1 -10.5
v 13.5 0 -10.5
v 13.5 1 -10.5
v 15.5 0 -10.5
v 15.5 2 -10.5
v -15.5 2 -12.5
v -15.5 3 -12.5
v 15.5 2 -12.5
v 15.5 3 -12.5
v -0.5 1 6.5
v -0.5 2 6.5
v 3.5 1 6.5
v 3.5 2 6.5
v -4.5 1 -2.5
v -4.5 2 -2.5
v -1.5 1 -2.5
v -1.5 2 -2.5
v 1.5 1 -2.5
v 1.5 2 -2.5
v 6.5 1 -2.5
v 6.5 2 -2.5
v -7.5 1 -6.5
v -7.5 2 -6.5
v -5.5 1 -6.5
v -5.5 2 -6.5
v 2.5 1 -9.5
v 2.5 2 -9.5
v 5.5 1 -9.5
v 5.5 2 -9.5
v -15.5 0 -16.5
v -15.5 3 -16.5
v 15.5 0 -16.5
v 15.5 3 -16.5
v -0.5 0 16.5
v 1.5 0 16.5
v -1.5 0 14.5
v -0.5 0 14.5
v 1.5 0 14.5
v 2.5 0 14.5
v -3.5 0 11.5
v -1.5 0 11.5
v 2.5 0 11.5
v 4.5 0 11.5
v -2.5 0 10.5
v -0.5 0 10.5
v 1.5 0 10.5
v 3.5 0 10.5
v -0.5 0 9.5
v 2.5 0 9.5
v -6.5 0 7.5
v -3.5 0 7.5
v 4.5 0 7.5
v 7.5 0 7.5
v -4.5 0 6.5
v -2.5 0 6.5
v -0.5 0 6.5
v 2.5 0 6.5
v 3.5 0 6.5
v 5.5 0 6.5
v 7.5 0 3.5
v 9.5 0 3.5
v -8.5 0 2.5
v -6.5 0 2.5
v -4.5 0 2.5
v 1.5 0 2.5
v 5.5 0 2.5
v 6.5 0 2.5
v 7.5 0 2.5
v -4.5 0 0.5
v -1.5 0 0.5
v -10.5 0 -1.5
v -8.5 0 -1.5
v -8.5 0 -2.5
v -6.5 0 -2.5
v -4.5 0 -2.5
v -1.5 0 -2.5
v 1.5 0 -2.5
v 6.5 0 -2.5
v 7.5 0 -2.5
v 8.5 0 -2.5
v 9.5 0 -2.5
v 12.5 0 -2.5
v -13.5 0 -4.5
v -10.5 0 -4.5
v -7.5 0 -4.5
v -5.5 0 -4.5
v -11.5 0 -5.5
v -8.5 0 -5.5
v 8.5 0 -5.5
v 10.5 0 -5.5
v 2.5 0 -6.5
v 5.5 0 -6.5
v -7.5 0 -7.5
v -5.5 0 -7.5
v 12.5 0 -8.5
v 13.5 0 -8.5
v 2.5 0 -9.5
v 5.5 0 -9.5
v -15.5 0 -10.5
v -13.5 0 -10.5
v -11.5 0 -10.5
v 10.5 0 -10.5
v 13.5 0 -10.5
v 15.5 0 -10.5
v -15.5 0 -16.5
v 15.5 0 -16.5
v -0.5 1 16.5
v 1.5 1 16.5
v -1.5 1 14.5
v -0.5 1 14.5
v 1.5 1 14.5
v 2.5 1 14.5
v -3.5 1 11.5
v -1.5 1 11.5
v 2.5 1 11.5
v 4.5 1 11.5
v -2.5 1 10.5
v -0.5 1 10.5
v 1.5 1 10.5
v 3.5 1 10.5
v -0.5 1 9.5
v 3.5 1 9.5
v -6.5 1 7.5
v -3.5 1 7.5
v 4.5 1 7.5
v 7.5 1 7.5
v -4.5 1 6.5
v -2.5 1 6.5
v -0.5 1 6.5
v 3.5 1 6.5
v 5.5 1 6.5
v 7.5 1 3.5
v 9.5 1 3.5
v -8.5 1 2.5
v -6.5 1 2.5
v -4.5 1 2.5
v 1.5 1 2.5
v 5.5 1 2.5
v 6.5 1 2.5
v 7.5 1 2.5
v -4.5 1 0.5
v -1.5 1 0.5
v -10.5 1 -1.5
v -8.5 1 -1.5
v -8.5 1 -2.5
v -6.5 1 -2.5
v -4.5 1 -2.5
v -1.5 1 -2.5
v 1.5 1 -2.5
v 6.5 1 -2.5
v 7.5 1 -2.5
v 8.5 1 -2.5
v 9.5 1 -2.5
v 12.5 1 -2.5
v -13.5 1 -4.5
v -10.5 1 -4.5
v -7.5 1 -4.5
v -5.5 1 -4.5
v -11.5 1 -5.5
v -8.5 1 -5.5
v 8.5 1 -5.5
v 10.5 1 -5.5
v -7.5 1 -6.5
v -5.5 1 -6.5
v 2.5 1 -6.5
v 5.5 1 -6.5
v -7.5 1 -7.5
v -5.5 1 -7.5
v 12.5 1 -8.5
v 13.5 1 -8.5
v 2.5 1 -9.5
v 5.5 1 -9.5
v -13.5 1 -10.5
v -11.5 1 -10.5
v 10.5 1 -10.5
v 13.5 1 -10.5
v -0.5 2 9.5
v 3.5 2 9.5
v -0.5 2 6.5
v 3.5 2 6.5
v 1.5 2 2.5
v 6.5 2 2.5
v -4.5 2 0.5
v -1.5 2 0.5
v -4.5 2 -2.5
v -1.5 2 -2.5
v 1.5 2 -2.5
v 6.5 2 -2.5
v -7.5 2 -4.5
v -5.5 2 -4.5
v -7.5 2 -6.5
v -5.5 2 -6.5
v 2.5 2 -6.5
v 5.5 2 -6.5
v 2.5 2 -9.5
v 5.5 2 -9.5
v -15.5 2 -10.5
v 15.5 2 -10.5
v -15.5 2 -12.5
v 15.5 2 -12.5
v -15.5 3 -12.5
v 15.5 3 -12.5
v -15.5 3 -16.5
v 15.5 3 -16.5

# faces
f 3/2/1 2/2/1 1/2/1
f 4/2/1 2/2/1 3/2/1
f 5/2/1 2/2/1 4/2/1
f 6/2/1 2/2/1 5/2/1
f 9/2/1 8/2/1 7/2/1
f 10/2/1 8/2/1 9/2/1
f 13/2/1 12/2/1 11/2/1
f 14/2/1 12/2/1 13/2/1
f 17/2/1 16/2/1 15/2/1
f 18/2/1 16/2/1 17/2/1
f 21/3/1 20/3/1 19/3/1
f 22/3/1 20/3/1 21/3/1
f 25/2/1 24/2/1 23/2/1
f 26/2/1 24/2/1 25/2/1
f 29/3/1 28/3/1 27/3/1
f 30/3/1 28/3/1 29/3/1
f 33/2/1 32/2/1 31/2/1
f 34/2/1 32/2/1 33/2/1
f 37/2/1 36/2/1 35/2/1
f 38/2/1 36/2/1 37/2/1
f 41/2/1 40/2/1 39/2/1
f 42/2/1 40/2/1 41/2/1
f 45/3/1 44/3/1 43/3/1
f 46/3/1 44/3/1 45/3/1
f 49/3/1 48/3/1 47/3/1
f 50/3/1 48/3/1 49/3/1
f 53/3/1 52/3/1 51/3/1
f 54/3/1 52/3/1 53/3/1
f 55/3/2 56/3/2 57/3/2
f 57/3/2 56/3/2 58/3/2
f 59/3/2 60/3/2 61/3/2
f 61/3/2 60/3/2 62/3/2
f 63/2/2 64/2/2 65/2/2
f 65/2/2 64/2/2 66/2/2
f 67/2/2 68/2/2 69/2/2
f 69/2/2 68/2/2 70/2/2
f 71/3/2 72/3/2 73/3/2
f 73/3/2 72/3/2 74/3/2
f 75/2/2 76/2/2 77/2/2
f 77/2/2 76/2/2 78/2/2
f 79/3/2 80/3/2 81/3/2
f 81/3/2 80/3/2 82/3/2
f 83/3/2 84/3/2 85/3/2
f 85/3/2 84/3/2 86/3/2
f 87/2/2 88/2/2 89/2/2
f 89/2/2 88/2/2 90/2/2
f 91/2/2 92/2/2 93/2/2
f 93/2/2 92/2/2 94/2/2
f 95/2/2 96/2/2 97/2/2
f 97/2/2 96/2/2 98/2/2
f 99/2/2 100/2/2 101/2/2
f 101/2/2 100/2/2 102/2/2
f 103/2/2 104/2/2 105/2/2
f 105/2/2 104/2/2 106/2/2
f 106/2/2 104/2/2 107/2/2
f 107/2/2 104/2/2 108/2/2
f 111/2/3 110/2/3 109/2/3
f 112/2/3 110/2/3 111/2/3
f 115/2/3 114/2/3 113/2/3
f 116/2/3 114/2/3 115/2/3
f 119/2/3 118/2/3 117/2/3
f 120/2/3 118/2/3 119/2/3
f 123/2/3 122/2/3 121/2/3
f 124/2/3 122/2/3 123/2/3
f 127/2/3 126/2/3 125/2/3
f 128/2/3 126/2/3 127/2/3
f 131/3/3 130/3/3 129/3/3
f 132/3/3 130/3/3 131/3/3
f 135/2/3 134/2/3 133/2/3
f 136/2/3 134/2/3 135/2/3
f 139/2/3 138/2/3 137/2/3
f 140/2/3 138/2/3 139/2/3
f 143/2/3 142/2/3 141/2/3
f 144/2/3 142/2/3 143/2/3
f 147/2/3 146/2/3 145/2/3
f 148/2/3 146/2/3 147/2/3
f 151/3/3 150/3/3 149/3/3
f 152/3/3 150/3/3 151/3/3
f 153/3/3 150/3/3 152/3/3
f 156/3/3 155/3/3 154/3/3
f 157/3/3 155/3/3 156/3/3
f 160/2/3 159/2/3 158/2/3
f 161/2/3 159/2/3 160/2/3
f 164/2/3 163/2/3 162/2/3
f 165/2/3 163/2/3 164/2/3
f 168/2/3 167/2/3 166/2/3
f 169/2/3 167/2/3 168/2/3
f 172/3/3 171/3/3 170/3/3
f 173/3/3 171/3/3 172/3/3
f 176/3/3 175/3/3 174/3/3
f 177/3/3 175/3/3 176/3/3
f 180/2/3 179/2/3 178/2/3
f 181/2/3 179/2/3 180/2/3
f 184/2/3 183/2/3 182/2/3
f 185/2/3 183/2/3 184/2/3
f 186/2/3 183/2/3 185/2/3
f 187/2/3 183/2/3 186/2/3
f 189/2/3 183/2/3 187/2/3
f 190/2/3 189/2/3 188/2/3
f 191/2/3 183/2/3 189/2/3
f 191/2/3 189/2/3 190/2/3
f 194/2/3 193/2/3 192/2/3
f 195/2/3 193/2/3 194/2/3
f 196/3/4 197/3/4 198/3/4
f 198/3/4 197/3/4 199/3/4
f 200/3/4 201/3/4 202/3/4
f 202/3/4 201/3/4 203/3/4
f 204/3/4 205/3/4 206/3/4
f 206/3/4 205/3/4 207/3/4
f 208/3/4 209/3/4 210/3/4
f 210/3/4 209/3/4 211/3/4
f 212/3/4 213/3/4 214/3/4
f 214/3/4 213/3/4 215/3/4
f 216/2/4 217/2/4 218/2/4
f 218/2/4 217/2/4 219/2/4
f 223/2/5 221/2/5 220/2/5
f 224/2/5 221/2/5 223/2/5
f 227/2/5 223/2/5 222/2/5
f 228/2/5 225/2/5 224/2/5
f 230/2/5 227/2/5 226/2/5
f 231/1/5 224/1/5 223/1/5
f 231/2/5 227/2/5 230/2/5
f 231/2/5 223/2/5 227/2/5
f 232/2/5 229/2/5 228/2/5
f 232/1/5 224/1/5 231/1/5
f 232/2/5 228/2/5 224/2/5
f 233/2/5 229/2/5 232/2/5
f 234/1/5 231/1/5 230/1/5
f 234/1/5 232/1/5 231/1/5
f 234/1/5 233/1/5 232/1/5
f 235/1/5 233/1/5 234/1/5
f 237/2/5 230/2/5 226/2/5
f 238/2/5 229/2/5 233/2/5
f 240/2/5 237/2/5 236/2/5
f 241/1/5 234/1/5 230/1/5
f 241/2/5 237/2/5 240/2/5
f 241/2/5 230/2/5 237/2/5
f 242/3/5 235/3/5 234/3/5
f 242/1/5 234/1/5 241/1/5
f 243/1/5 233/1/5 235/1/5
f 243/3/5 235/3/5 242/3/5
f 244/2/5 239/2/5 238/2/5
f 244/1/5 233/1/5 243/1/5
f 244/2/5 238/2/5 233/2/5
f 245/2/5 239/2/5 244/2/5
f 246/2/5 239/2/5 245/2/5
f 249/2/5 240/2/5 236/2/5
f 250/1/5 243/1/5 242/1/5
f 250/1/5 242/1/5 241/1/5
f 250/2/5 240/2/5 249/2/5
f 250/1/5 241/1/5 240/1/5
f 250/1/5 244/1/5 243/1/5
f 250/1/5 245/1/5 244/1/5
f 251/1/5 245/1/5 250/1/5
f 252/2/5 247/2/5 246/2/5
f 252/1/5 245/1/5 251/1/5
f 252/2/5 246/2/5 245/2/5
f 253/2/5 247/2/5 252/2/5
f 254/2/5 247/2/5 253/2/5
f 255/1/5 251/1/5 250/1/5
f 255/1/5 250/1/5 249/1/5
f 256/1/5 251/1/5 255/1/5
f 258/2/5 249/2/5 248/2/5
f 259/2/5 249/2/5 258/2/5
f 259/2/5 258/2/5 257/2/5
f 260/1/5 255/1/5 249/1/5
f 260/2/5 249/2/5 259/2/5
f 261/3/5 256/3/5 255/3/5
f 261/1/5 255/1/5 260/1/5
f 262/1/5 251/1/5 256/1/5
f 262/3/5 256/3/5 261/3/5
f 263/3/5 252/3/5 251/3/5
f 263/1/5 251/1/5 262/1/5
f 263/3/5 253/3/5 252/3/5
f 264/1/5 254/1/5 253/1/5
f 264/3/5 253/3/5 263/3/5
f 265/2/5 247/2/5 254/2/5
f 265/1/5 254/1/5 264/1/5
f 266/2/5 247/2/5 265/2/5
f 267/2/5 247/2/5 266/2/5
f 270/2/5 259/2/5 257/2/5
f 271/1/5 261/1/5 260/1/5
f 271/1/5 264/1/5 263/1/5
f 271/1/5 263/1/5 262/1/5
f 271/1/5 262/1/5 261/1/5
f 271/1/5 260/1/5 259/1/5
f 271/1/5 266/1/5 265/1/5
f 271/1/5 265/1/5 264/1/5
f 272/1/5 266/1/5 271/1/5
f 273/2/5 270/2/5 269/2/5
f 274/2/5 259/2/5 270/2/5
f 274/2/5 270/2/5 273/2/5
f 274/1/5 271/1/5 259/1/5
f 275/1/5 266/1/5 272/1/5
f 275/2/5 267/2/5 266/2/5
f 275/2/5 268/2/5 267/2/5
f 276/2/5 268/2/5 275/2/5
f 277/1/5 275/1/5 272/1/5
f 277/1/5 276/1/5 275/1/5
f 278/1/5 276/1/5 277/1/5
f 279/1/5 271/1/5 274/1/5
f 279/1/5 274/1/5 273/1/5
f 279/3/5 272/3/5 271/3/5
f 280/1/5 277/1/5 272/1/5
f 280/3/5 272/3/5 279/3/5
f 281/2/5 268/2/5 276/2/5
f 283/3/5 278/3/5 277/3/5
f 283/1/5 277/1/5 280/1/5
f 283/1/5 280/1/5 279/1/5
f 284/1/5 276/1/5 278/1/5
f 284/3/5 278/3/5 283/3/5
f 286/2/5 273/2/5 269/2/5
f 287/1/5 283/1/5 279/1/5
f 287/1/5 279/1/5 273/1/5
f 287/2/5 273/2/5 286/2/5
f 287/1/5 284/1/5 283/1/5
f 288/1/5 276/1/5 284/1/5
f 288/1/5 284/1/5 287/1/5
f 288/2/5 282/2/5 281/2/5
f 288/2/5 281/2/5 276/2/5
f 289/2/5 282/2/5 288/2/5
f 291/2/5 286/2/5 285/2/5
f 291/2/5 290/2/5 289/2/5
f 291/2/5 289/2/5 288/2/5
f 291/2/5 288/2/5 287/2/5
f 291/2/5 287/2/5 286/2/5
f 292/2/5 290/2/5 291/2/5
f 293/2/6 294/2/6 296/2/6
f 296/2/6 294/2/6 297/2/6
f 295/2/6 296/2/6 300/2/6
f 297/2/6 298/2/6 301/2/6
f 299/2/6 300/2/6 303/2/6
f 296/1/6 297/1/6 304/1/6
f 303/2/6 300/2/6 304/2/6
f 300/2/6 296/2/6 304/2/6
f 301/2/6 302/2/6 305/2/6
f 304/1/6 297/1/6 305/1/6
f 297/2/6 301/2/6 305/2/6
f 305/2/6 302/2/6 306/2/6
f 303/1/6 304/1/6 307/1/6
f 304/1/6 305/1/6 307/1/6
f 305/1/6 306/1/6 307/1/6
f 306/2/6 302/2/6 308/2/6
f 307/1/6 306/1/6 308/1/6
f 299/2/6 303/2/6 310/2/6
f 308/2/6 302/2/6 311/2/6
f 309/2/6 310/2/6 313/2/6
f 303/1/6 307/1/6 314/1/6
f 313/2/6 310/2/6 314/2/6
f 310/2/6 303/2/6 314/2/6
f 314/1/6 307/1/6 315/1/6
f 311/2/6 312/2/6 316/2/6
f 308/2/6 311/2/6 316/2/6
f 316/2/6 312/2/6 317/2/6
f 317/2/6 312/2/6 318/2/6
f 309/2/6 313/2/6 321/2/6
f 314/1/6 315/1/6 322/1/6
f 313/1/6 314/1/6 322/1/6
f 321/2/6 313/2/6 322/2/6
f 315/1/6 316/1/6 322/1/6
f 316/1/6 317/1/6 322/1/6
f 322/1/6 317/1/6 323/1/6
f 318/2/6 319/2/6 324/2/6
f 323/1/6 317/1/6 324/1/6
f 317/2/6 318/2/6 324/2/6
f 324/2/6 319/2/6 325/2/6
f 325/2/6 319/2/6 326/2/6
f 322/1/6 323/1/6 327/1/6
f 321/1/6 322/1/6 327/1/6
f 327/1/6 323/1/6 328/1/6
f 320/2/6 321/2/6 330/2/6
f 330/2/6 321/2/6 331/2/6
f 329/2/6 330/2/6 331/2/6
f 321/1/6 327/1/6 332/1/6
f 331/2/6 321/2/6 332/2/6
f 332/1/6 327/1/6 333/1/6
f 328/1/6 323/1/6 334/1/6
f 334/1/6 323/1/6 335/1/6
f 325/1/6 326/1/6 336/1/6
f 326/2/6 319/2/6 337/2/6
f 336/1/6 326/1/6 337/1/6
f 337/2/6 319/2/6 338/2/6
f 338/2/6 319/2/6 339/2/6
f 329/2/6 331/2/6 342/2/6
f 335/1/6 336/1/6 343/1/6
f 332/1/6 333/1/6 343/1/6
f 334/1/6 335/1/6 343/1/6
f 331/1/6 332/1/6 343/1/6
f 333/1/6 334/1/6 343/1/6
f 337/1/6 338/1/6 343/1/6
f 336/1/6 337/1/6 343/1/6
f 343/1/6 338/1/6 344/1/6
f 341/2/6 342/2/6 345/2/6
f 342/2/6 331/2/6 346/2/6
f 345/2/6 342/2/6 346/2/6
f 331/1/6 343/1/6 346/1/6
f 344/1/6 338/1/6 347/1/6
f 339/2/6 340/2/6 347/2/6
f 338/2/6 339/2/6 347/2/6
f 347/2/6 340/2/6 348/2/6
f 346/1/6 343/1/6 349/1/6
f 345/1/6 346/1/6 349/1/6
f 347/1/6 348/1/6 350/1/6
f 344/1/6 347/1/6 350/1/6
f 350/1/6 348/1/6 351/1/6
f 351/1/6 348/1/6 352/1/6
f 345/1/6 349/1/6 353/1/6
f 349/3/6 350/3/6 353/3/6
f 350/1/6 351/1/6 354/1/6
f 353/3/6 350/3/6 354/3/6
f 348/2/6 340/2/6 355/2/6
f 354/1/6 351/1/6 357/1/6
f 353/1/6 354/1/6 357/1/6
f 352/1/6 348/1/6 358/1/6
f 341/2/6 345/2/6 359/2/6
f 357/1/6 358/1/6 360/1/6
f 359/2/6 345/2/6 360/2/6
f 353/1/6 357/1/6 360/1/6
f 345/1/6 353/1/6 360/1/6
f 355/2/6 356/2/6 361/2/6
f 360/1/6 358/1/6 361/1/6
f 358/1/6 348/1/6 361/1/6
f 348/2/6 355/2/6 361/2/6
f 361/2/6 356/2/6 362/2/6
f 363/3/6 364/3/6 365/3/6
f 365/3/6 364/3/6 366/3/6
f 369/3/6 370/3/6 371/3/6
f 371/3/6 370/3/6 372/3/6
f 367/3/6 368/3/6 373/3/6
f 373/3/6 368/3/6 374/3/6
f 375/3/6 376/3/6 377/3/6
f 377/3/6 376/3/6 378/3/6
f 379/3/6 380/3/6 381/3/6
f 381/3/6 380/3/6 382/3/6
f 383/2/6 384/2/6 385/2/6
f 385/2/6 384/2/6 386/2/6
f 387/2/6 388/2/6 389/2/6
f 389/2/6 388/2/6 390/2/6
