# MagicaVoxel @ Ephtracy

# group
g Pool

# material
mtllib Pool.mtl
usemtl palette

# normals
vn -1 0 0
vn 1 0 0
vn 0 0 1
vn 0 0 -1
vn 0 -1 0
vn 0 1 0

# texcoords
vt 0.587891 0.5
vt 0.755859 0.5
vt 0.978516 0.5
vt 0.986328 0.5

# verts
v -63 1 35
v -63 1 -35
v -63 5 35
v -63 5 -35
v -62 0 34
v -62 0 -34
v -62 1 34
v -62 1 -34
v -11 4 -32
v -11 4 -33
v -11 5 -33
v -11 5 -34
v -11 6 -33
v -11 6 -34
v -11 10 -32
v -11 10 -33
v -1 6 -32
v -1 6 -33
v -1 8 -32
v -1 8 -33
v -1 9 -32
v -1 9 -33
v -1 10 -32
v -1 10 -33
v 61 4 33
v 61 4 -33
v 61 5 33
v 61 5 -33
v -60 4 33
v -60 4 -33
v -60 5 33
v -60 5 -33
v -10 6 -32
v -10 6 -33
v -10 8 -32
v -10 8 -33
v -10 9 -32
v -10 9 -33
v -10 10 -32
v -10 10 -33
v 0 4 -32
v 0 4 -33
v 0 5 -33
v 0 5 -34
v 0 6 -33
v 0 6 -34
v 0 10 -32
v 0 10 -33
v 62 0 34
v 62 0 -34
v 62 1 34
v 62 1 -34
v 63 1 35
v 63 1 -35
v 63 5 35
v 63 5 -35
v -63 1 35
v -63 5 35
v 63 1 35
v 63 5 35
v -62 0 34
v -62 1 34
v 62 0 34
v 62 1 34
v -11 4 -32
v -11 10 -32
v -10 6 -32
v -10 8 -32
v -10 9 -32
v -10 10 -32
v -1 6 -32
v -1 8 -32
v -1 9 -32
v -1 10 -32
v 0 4 -32
v 0 10 -32
v -60 4 -33
v -60 5 -33
v -11 4 -33
v -11 5 -33
v 0 4 -33
v 0 5 -33
v 16 4 -33
v 60 4 -33
v 61 4 -33
v 61 5 -33
v -60 4 33
v -60 5 33
v -57 4 33
v 60 4 33
v 61 4 33
v 61 5 33
v -11 6 -33
v -11 10 -33
v -10 6 -33
v -10 8 -33
v -10 9 -33
v -10 10 -33
v -1 6 -33
v -1 8 -33
v -1 9 -33
v -1 10 -33
v 0 6 -33
v 0 10 -33
v -62 0 -34
v -62 1 -34
v -11 5 -34
v -11 6 -34
v 0 5 -34
v 0 6 -34
v 62 0 -34
v 62 1 -34
v -63 1 -35
v -63 5 -35
v 63 1 -35
v 63 5 -35
v -62 0 34
v 62 0 34
v -62 0 -34
v 62 0 -34
v -63 1 35
v 63 1 35
v -62 1 34
v 62 1 34
v -62 1 -34
v 62 1 -34
v -63 1 -35
v 63 1 -35
v -10 8 -32
v -1 8 -32
v -10 8 -33
v -1 8 -33
v -60 4 33
v -57 4 33
v 60 4 33
v 61 4 33
v -57 4 21
v -53 4 21
v -53 4 14
v -45 4 14
v -45 4 7
v -37 4 7
v -37 4 -0
v -28 4 -0
v -28 4 -6
v -20 4 -6
v -20 4 -12
v -13 4 -12
v -13 4 -18
v -3 4 -18
v -3 4 -26
v 5 4 -26
v 5 4 -30
v 16 4 -30
v -11 4 -32
v 0 4 -32
v -60 4 -33
v -11 4 -33
v 0 4 -33
v 16 4 -33
v 60 4 -33
v 61 4 -33
v -63 5 35
v 63 5 35
v -60 5 33
v 61 5 33
v -60 5 -33
v -11 5 -33
v 0 5 -33
v 61 5 -33
v -11 5 -34
v 0 5 -34
v -63 5 -35
v 63 5 -35
v -10 6 -32
v -1 6 -32
v -11 6 -33
v -10 6 -33
v -1 6 -33
v 0 6 -33
v -11 6 -34
v 0 6 -34
v -10 9 -32
v -1 9 -32
v -10 9 -33
v -1 9 -33
v -11 10 -32
v -10 10 -32
v -1 10 -32
v 0 10 -32
v -11 10 -33
v -10 10 -33
v -1 10 -33
v 0 10 -33

# faces
f 3/3/1 2/3/1 1/3/1
f 4/3/1 2/3/1 3/3/1
f 7/3/1 6/3/1 5/3/1
f 8/3/1 6/3/1 7/3/1
f 11/4/1 10/4/1 9/4/1
f 13/4/1 11/4/1 9/4/1
f 13/4/1 12/4/1 11/4/1
f 14/4/1 12/4/1 13/4/1
f 15/4/1 13/4/1 9/4/1
f 16/4/1 13/4/1 15/4/1
f 19/4/1 18/4/1 17/4/1
f 20/4/1 18/4/1 19/4/1
f 23/4/1 22/4/1 21/4/1
f 24/4/1 22/4/1 23/4/1
f 27/3/1 26/3/1 25/3/1
f 28/3/1 26/3/1 27/3/1
f 29/3/2 30/3/2 31/3/2
f 31/3/2 30/3/2 32/3/2
f 33/4/2 34/4/2 35/4/2
f 35/4/2 34/4/2 36/4/2
f 37/4/2 38/4/2 39/4/2
f 39/4/2 38/4/2 40/4/2
f 41/4/2 42/4/2 43/4/2
f 41/4/2 43/4/2 45/4/2
f 43/4/2 44/4/2 45/4/2
f 45/4/2 44/4/2 46/4/2
f 41/4/2 45/4/2 47/4/2
f 47/4/2 45/4/2 48/4/2
f 49/3/2 50/3/2 51/3/2
f 51/3/2 50/3/2 52/3/2
f 53/3/2 54/3/2 55/3/2
f 55/3/2 54/3/2 56/3/2
f 59/3/3 58/3/3 57/3/3
f 60/3/3 58/3/3 59/3/3
f 63/3/3 62/3/3 61/3/3
f 64/3/3 62/3/3 63/3/3
f 67/4/3 66/4/3 65/4/3
f 68/4/3 66/4/3 67/4/3
f 69/4/3 66/4/3 68/4/3
f 70/4/3 66/4/3 69/4/3
f 71/4/3 67/4/3 65/4/3
f 72/4/3 69/4/3 68/4/3
f 73/4/3 69/4/3 72/4/3
f 75/4/3 71/4/3 65/4/3
f 75/4/3 74/4/3 73/4/3
f 75/4/3 73/4/3 72/4/3
f 75/4/3 72/4/3 71/4/3
f 76/4/3 74/4/3 75/4/3
f 79/3/3 78/3/3 77/3/3
f 80/3/3 78/3/3 79/3/3
f 83/3/3 82/3/3 81/3/3
f 84/3/3 82/3/3 83/3/3
f 85/3/3 82/3/3 84/3/3
f 86/3/3 82/3/3 85/3/3
f 87/3/4 88/3/4 89/3/4
f 89/3/4 88/3/4 90/3/4
f 90/3/4 88/3/4 91/3/4
f 91/3/4 88/3/4 92/3/4
f 93/4/4 94/4/4 95/4/4
f 95/4/4 94/4/4 96/4/4
f 96/4/4 94/4/4 97/4/4
f 97/4/4 94/4/4 98/4/4
f 96/4/4 97/4/4 100/4/4
f 100/4/4 97/4/4 101/4/4
f 99/4/4 100/4/4 103/4/4
f 101/4/4 102/4/4 103/4/4
f 100/4/4 101/4/4 103/4/4
f 103/4/4 102/4/4 104/4/4
f 107/4/4 108/4/4 109/4/4
f 109/4/4 108/4/4 110/4/4
f 105/3/4 106/3/4 111/3/4
f 111/3/4 106/3/4 112/3/4
f 113/3/4 114/3/4 115/3/4
f 115/3/4 114/3/4 116/3/4
f 119/3/5 118/3/5 117/3/5
f 120/3/5 118/3/5 119/3/5
f 123/3/5 122/3/5 121/3/5
f 124/3/5 122/3/5 123/3/5
f 125/3/5 123/3/5 121/3/5
f 126/3/5 122/3/5 124/3/5
f 127/3/5 125/3/5 121/3/5
f 127/3/5 126/3/5 125/3/5
f 128/3/5 122/3/5 126/3/5
f 128/3/5 126/3/5 127/3/5
f 131/4/5 130/4/5 129/4/5
f 132/4/5 130/4/5 131/4/5
f 133/2/6 134/2/6 137/2/6
f 134/1/6 135/1/6 137/1/6
f 137/1/6 135/1/6 138/1/6
f 137/2/6 138/2/6 139/2/6
f 138/1/6 135/1/6 139/1/6
f 139/1/6 135/1/6 140/1/6
f 139/2/6 140/2/6 141/2/6
f 140/1/6 135/1/6 141/1/6
f 141/1/6 135/1/6 142/1/6
f 141/2/6 142/2/6 143/2/6
f 142/1/6 135/1/6 143/1/6
f 143/1/6 135/1/6 144/1/6
f 143/2/6 144/2/6 145/2/6
f 144/1/6 135/1/6 145/1/6
f 145/1/6 135/1/6 146/1/6
f 145/2/6 146/2/6 147/2/6
f 146/1/6 135/1/6 147/1/6
f 147/1/6 135/1/6 148/1/6
f 147/2/6 148/2/6 149/2/6
f 148/1/6 135/1/6 149/1/6
f 149/1/6 135/1/6 150/1/6
f 149/2/6 150/2/6 151/2/6
f 150/1/6 135/1/6 151/1/6
f 151/1/6 135/1/6 152/1/6
f 151/2/6 152/2/6 153/2/6
f 152/1/6 135/1/6 153/1/6
f 153/1/6 135/1/6 154/1/6
f 149/2/6 151/2/6 155/2/6
f 151/2/6 153/2/6 155/2/6
f 153/2/6 154/2/6 155/2/6
f 155/2/6 154/2/6 156/2/6
f 133/2/6 137/2/6 157/2/6
f 137/2/6 139/2/6 157/2/6
f 149/2/6 155/2/6 157/2/6
f 139/2/6 141/2/6 157/2/6
f 147/2/6 149/2/6 157/2/6
f 145/2/6 147/2/6 157/2/6
f 143/2/6 145/2/6 157/2/6
f 141/2/6 143/2/6 157/2/6
f 157/2/6 155/2/6 158/2/6
f 156/2/6 154/2/6 159/2/6
f 154/1/6 135/1/6 160/1/6
f 159/2/6 154/2/6 160/2/6
f 135/3/6 136/3/6 161/3/6
f 160/1/6 135/1/6 161/1/6
f 161/3/6 136/3/6 162/3/6
f 163/3/6 164/3/6 165/3/6
f 165/3/6 164/3/6 166/3/6
f 163/3/6 165/3/6 167/3/6
f 166/3/6 164/3/6 170/3/6
f 167/3/6 168/3/6 171/3/6
f 169/3/6 170/3/6 172/3/6
f 167/3/6 171/3/6 173/3/6
f 171/3/6 172/3/6 173/3/6
f 163/3/6 167/3/6 173/3/6
f 172/3/6 170/3/6 174/3/6
f 173/3/6 172/3/6 174/3/6
f 170/3/6 164/3/6 174/3/6
f 175/4/6 176/4/6 178/4/6
f 178/4/6 176/4/6 179/4/6
f 177/4/6 178/4/6 181/4/6
f 179/4/6 180/4/6 181/4/6
f 178/4/6 179/4/6 181/4/6
f 181/4/6 180/4/6 182/4/6
f 183/4/6 184/4/6 185/4/6
f 185/4/6 184/4/6 186/4/6
f 187/4/6 188/4/6 191/4/6
f 191/4/6 188/4/6 192/4/6
f 189/4/6 190/4/6 193/4/6
f 193/4/6 190/4/6 194/4/6
