# MagicaVoxel @ Ephtracy

# group
g SmallBed

# material
mtllib SmallBed.mtl
usemtl palette

# normals
vn -1 0 0
vn 1 0 0
vn 0 0 1
vn 0 0 -1
vn 0 -1 0
vn 0 1 0

# texcoords
vt 0.00195313 0.5
vt 0.00585938 0.5
vt 0.00976563 0.5
vt 0.0332031 0.5
vt 0.537109 0.5
vt 0.697266 0.5

# verts
v -13.5 2 27.5
v -13.5 2 -27.5
v -13.5 3 27.5
v -13.5 3 -27.5
v -13.5 4 25.5
v -13.5 4 -12.5
v -13.5 4 -14.5
v -13.5 10 25.5
v -13.5 10 -12.5
v -13.5 10 -14.5
v -12.5 3 25.5
v -12.5 3 -27.5
v -12.5 4 25.5
v -12.5 4 -12.5
v -12.5 4 -14.5
v -12.5 9 -14.5
v -12.5 9 -24.5
v -12.5 10 25.5
v -12.5 10 -12.5
v -12.5 10 -14.5
v -12.5 11 25.5
v -12.5 11 -12.5
v -12.5 11 -14.5
v -12.5 12 -24.5
v -12.5 12 -25.5
v -12.5 15 -25.5
v -12.5 15 -27.5
v -11.5 0 25.5
v -11.5 0 23.5
v -11.5 0 -23.5
v -11.5 0 -25.5
v -11.5 2 25.5
v -11.5 2 23.5
v -11.5 2 -23.5
v -11.5 2 -25.5
v -11.5 3 26.5
v -11.5 3 25.5
v -11.5 8 26.5
v -11.5 8 25.5
v -11.5 8 24.5
v -11.5 9 24.5
v -11.5 9 -14.5
v -11.5 9 -24.5
v -11.5 10 25.5
v -11.5 10 24.5
v -11.5 10 -14.5
v -11.5 10 -24.5
v -10.5 8 26.5
v -10.5 8 25.5
v -10.5 9 26.5
v -10.5 9 25.5
v -7.5 10 -19.5
v -7.5 10 -24.5
v -7.5 11 -19.5
v -7.5 11 -24.5
v -6.5 11 -19.5
v -6.5 11 -23.5
v -6.5 12 -19.5
v -6.5 12 -23.5
v -5.5 10 -18.5
v -5.5 10 -19.5
v -5.5 11 -18.5
v -5.5 11 -19.5
v -5.5 11 -23.5
v -5.5 11 -24.5
v -5.5 12 -23.5
v -5.5 12 -24.5
v 12.5 8 25.5
v 12.5 8 24.5
v 12.5 10 25.5
v 12.5 10 24.5
v -12.5 8 25.5
v -12.5 8 24.5
v -12.5 9 24.5
v -12.5 10 25.5
v -12.5 10 24.5
v -9.5 0 25.5
v -9.5 0 23.5
v -9.5 0 -23.5
v -9.5 0 -25.5
v -9.5 2 25.5
v -9.5 2 23.5
v -9.5 2 -23.5
v -9.5 2 -25.5
v 4.5 10 -23.5
v 4.5 10 -24.5
v 4.5 11 -23.5
v 4.5 11 -24.5
v 8.5 10 -18.5
v 8.5 10 -19.5
v 8.5 11 -18.5
v 8.5 11 -19.5
v 9.5 11 -23.5
v 9.5 11 -24.5
v 9.5 12 -23.5
v 9.5 12 -24.5
v 10.5 8 26.5
v 10.5 8 25.5
v 10.5 9 26.5
v 10.5 9 25.5
v 10.5 10 -19.5
v 10.5 10 -23.5
v 10.5 12 -19.5
v 10.5 12 -23.5
v 11.5 3 26.5
v 11.5 3 25.5
v 11.5 8 26.5
v 11.5 8 25.5
v 11.5 8 24.5
v 11.5 10 25.5
v 11.5 10 24.5
v 12.5 3 25.5
v 12.5 3 -27.5
v 12.5 4 25.5
v 12.5 4 -12.5
v 12.5 4 -14.5
v 12.5 10 25.5
v 12.5 10 -12.5
v 12.5 10 -14.5
v 12.5 10 -24.5
v 12.5 11 25.5
v 12.5 11 -12.5
v 12.5 11 -14.5
v 12.5 12 -24.5
v 12.5 12 -25.5
v 12.5 15 -25.5
v 12.5 15 -27.5
v 13.5 2 27.5
v 13.5 2 -27.5
v 13.5 3 27.5
v 13.5 3 -27.5
v 13.5 4 25.5
v 13.5 4 -12.5
v 13.5 4 -14.5
v 13.5 10 25.5
v 13.5 10 -12.5
v 13.5 10 -14.5
v -13.5 2 27.5
v -13.5 3 27.5
v 13.5 2 27.5
v 13.5 3 27.5
v -11.5 3 26.5
v -11.5 8 26.5
v -10.5 8 26.5
v -10.5 9 26.5
v 10.5 8 26.5
v 10.5 9 26.5
v 11.5 3 26.5
v 11.5 8 26.5
v -13.5 4 25.5
v -13.5 10 25.5
v -12.5 3 25.5
v -12.5 4 25.5
v -12.5 8 25.5
v -12.5 10 25.5
v -12.5 11 25.5
v -11.5 0 25.5
v -11.5 2 25.5
v -11.5 3 25.5
v -11.5 8 25.5
v -11.5 10 25.5
v -10.5 8 25.5
v -10.5 9 25.5
v -9.5 0 25.5
v -9.5 2 25.5
v 10.5 8 25.5
v 10.5 9 25.5
v 11.5 3 25.5
v 11.5 8 25.5
v 11.5 10 25.5
v 12.5 3 25.5
v 12.5 4 25.5
v 12.5 8 25.5
v 12.5 10 25.5
v 12.5 11 25.5
v 13.5 4 25.5
v 13.5 10 25.5
v -12.5 8 24.5
v -12.5 9 24.5
v -12.5 10 24.5
v -11.5 8 24.5
v -11.5 9 24.5
v -11.5 10 24.5
v 11.5 8 24.5
v 11.5 10 24.5
v 12.5 8 24.5
v 12.5 10 24.5
v -5.5 10 -18.5
v -5.5 11 -18.5
v 8.5 10 -18.5
v 8.5 11 -18.5
v -7.5 10 -19.5
v -7.5 11 -19.5
v -6.5 11 -19.5
v -6.5 12 -19.5
v -5.5 10 -19.5
v -5.5 11 -19.5
v 8.5 10 -19.5
v 8.5 11 -19.5
v 10.5 10 -19.5
v 10.5 12 -19.5
v -11.5 0 -23.5
v -11.5 2 -23.5
v -9.5 0 -23.5
v -9.5 2 -23.5
v -12.5 9 -24.5
v -12.5 12 -24.5
v -11.5 9 -24.5
v -11.5 10 -24.5
v -7.5 10 -24.5
v -7.5 11 -24.5
v -5.5 11 -24.5
v -5.5 12 -24.5
v 4.5 10 -24.5
v 4.5 11 -24.5
v 9.5 11 -24.5
v 9.5 12 -24.5
v 12.5 10 -24.5
v 12.5 12 -24.5
v -12.5 12 -25.5
v -12.5 15 -25.5
v 12.5 12 -25.5
v 12.5 15 -25.5
v -11.5 0 23.5
v -11.5 2 23.5
v -9.5 0 23.5
v -9.5 2 23.5
v -13.5 4 -14.5
v -13.5 10 -14.5
v -12.5 4 -14.5
v -12.5 9 -14.5
v -12.5 10 -14.5
v -12.5 11 -14.5
v -11.5 9 -14.5
v -11.5 10 -14.5
v 12.5 4 -14.5
v 12.5 10 -14.5
v 12.5 11 -14.5
v 13.5 4 -14.5
v 13.5 10 -14.5
v -6.5 11 -23.5
v -6.5 12 -23.5
v -5.5 11 -23.5
v -5.5 12 -23.5
v 4.5 10 -23.5
v 4.5 11 -23.5
v 9.5 11 -23.5
v 9.5 12 -23.5
v 10.5 10 -23.5
v 10.5 12 -23.5
v -11.5 0 -25.5
v -11.5 2 -25.5
v -9.5 0 -25.5
v -9.5 2 -25.5
v -13.5 2 -27.5
v -13.5 3 -27.5
v -12.5 3 -27.5
v -12.5 15 -27.5
v 12.5 3 -27.5
v 12.5 15 -27.5
v 13.5 2 -27.5
v 13.5 3 -27.5
v -11.5 0 25.5
v -9.5 0 25.5
v -11.5 0 23.5
v -9.5 0 23.5
v -11.5 0 -23.5
v -9.5 0 -23.5
v -11.5 0 -25.5
v -9.5 0 -25.5
v -13.5 2 27.5
v 13.5 2 27.5
v -11.5 2 25.5
v -9.5 2 25.5
v -11.5 2 23.5
v -9.5 2 23.5
v -11.5 2 -23.5
v -9.5 2 -23.5
v -11.5 2 -25.5
v -9.5 2 -25.5
v -13.5 2 -27.5
v 13.5 2 -27.5
v -13.5 4 25.5
v -12.5 4 25.5
v 12.5 4 25.5
v 13.5 4 25.5
v -13.5 4 -12.5
v -12.5 4 -12.5
v 12.5 4 -12.5
v 13.5 4 -12.5
v -13.5 4 -14.5
v -12.5 4 -14.5
v 12.5 4 -14.5
v 13.5 4 -14.5
v -12.5 10 25.5
v -11.5 10 25.5
v 11.5 10 25.5
v 12.5 10 25.5
v -12.5 10 24.5
v -11.5 10 24.5
v 11.5 10 24.5
v 12.5 10 24.5
v 4.5 11 -23.5
v 9.5 11 -23.5
v 4.5 11 -24.5
v 9.5 11 -24.5
v -13.5 3 27.5
v 13.5 3 27.5
v -11.5 3 26.5
v 11.5 3 26.5
v -12.5 3 25.5
v -11.5 3 25.5
v 11.5 3 25.5
v 12.5 3 25.5
v -13.5 3 -27.5
v -12.5 3 -27.5
v 12.5 3 -27.5
v 13.5 3 -27.5
v -11.5 8 26.5
v -10.5 8 26.5
v 10.5 8 26.5
v 11.5 8 26.5
v -12.5 8 25.5
v -11.5 8 25.5
v -10.5 8 25.5
v 10.5 8 25.5
v 11.5 8 25.5
v 12.5 8 25.5
v -12.5 8 24.5
v -11.5 8 24.5
v 11.5 8 24.5
v 12.5 8 24.5
v -10.5 9 26.5
v 10.5 9 26.5
v -10.5 9 25.5
v 10.5 9 25.5
v -12.5 9 -14.5
v -11.5 9 -14.5
v -12.5 9 -24.5
v -11.5 9 -24.5
v -13.5 10 25.5
v -12.5 10 25.5
v 12.5 10 25.5
v 13.5 10 25.5
v -13.5 10 -12.5
v -12.5 10 -12.5
v 12.5 10 -12.5
v 13.5 10 -12.5
v -13.5 10 -14.5
v -12.5 10 -14.5
v -11.5 10 -14.5
v 12.5 10 -14.5
v 13.5 10 -14.5
v -5.5 10 -18.5
v 8.5 10 -18.5
v -7.5 10 -19.5
v -5.5 10 -19.5
v 8.5 10 -19.5
v 10.5 10 -19.5
v 4.5 10 -23.5
v 10.5 10 -23.5
v -11.5 10 -24.5
v -7.5 10 -24.5
v 4.5 10 -24.5
v 12.5 10 -24.5
v -12.5 11 25.5
v 12.5 11 25.5
v -12.5 11 -12.5
v 12.5 11 -12.5
v -12.5 11 -14.5
v 12.5 11 -14.5
v -5.5 11 -18.5
v 8.5 11 -18.5
v -7.5 11 -19.5
v -6.5 11 -19.5
v -5.5 11 -19.5
v 8.5 11 -19.5
v -6.5 11 -23.5
v -5.5 11 -23.5
v -7.5 11 -24.5
v -5.5 11 -24.5
v -6.5 12 -19.5
v 10.5 12 -19.5
v -6.5 12 -23.5
v -5.5 12 -23.5
v 9.5 12 -23.5
v 10.5 12 -23.5
v -12.5 12 -24.5
v -5.5 12 -24.5
v 9.5 12 -24.5
v 12.5 12 -24.5
v -12.5 12 -25.5
v 12.5 12 -25.5
v -12.5 15 -25.5
v 12.5 15 -25.5
v -12.5 15 -27.5
v 12.5 15 -27.5

# faces
f 3/5/1 2/5/1 1/5/1
f 4/5/1 2/5/1 3/5/1
f 8/4/1 6/4/1 5/4/1
f 9/3/1 7/3/1 6/3/1
f 9/4/1 6/4/1 8/4/1
f 10/3/1 7/3/1 9/3/1
f 13/2/1 12/2/1 11/2/1
f 14/2/1 12/2/1 13/2/1
f 15/2/1 12/2/1 14/2/1
f 16/2/1 12/2/1 15/2/1
f 17/2/1 12/2/1 16/2/1
f 21/4/1 19/4/1 18/4/1
f 22/3/1 20/3/1 19/3/1
f 22/4/1 19/4/1 21/4/1
f 23/3/1 20/3/1 22/3/1
f 24/2/1 12/2/1 17/2/1
f 25/2/1 12/2/1 24/2/1
f 26/2/1 12/2/1 25/2/1
f 27/2/1 12/2/1 26/2/1
f 32/6/1 29/6/1 28/6/1
f 33/6/1 29/6/1 32/6/1
f 34/6/1 31/6/1 30/6/1
f 35/6/1 31/6/1 34/6/1
f 38/2/1 37/2/1 36/2/1
f 39/2/1 37/2/1 38/2/1
f 41/2/1 40/2/1 39/2/1
f 44/2/1 41/2/1 39/2/1
f 45/2/1 41/2/1 44/2/1
f 46/2/1 43/2/1 42/2/1
f 47/2/1 43/2/1 46/2/1
f 50/2/1 49/2/1 48/2/1
f 51/2/1 49/2/1 50/2/1
f 54/1/1 53/1/1 52/1/1
f 55/1/1 53/1/1 54/1/1
f 58/1/1 57/1/1 56/1/1
f 59/1/1 57/1/1 58/1/1
f 62/1/1 61/1/1 60/1/1
f 63/1/1 61/1/1 62/1/1
f 66/1/1 65/1/1 64/1/1
f 67/1/1 65/1/1 66/1/1
f 70/4/1 69/4/1 68/4/1
f 71/4/1 69/4/1 70/4/1
f 72/4/2 73/4/2 74/4/2
f 72/4/2 74/4/2 75/4/2
f 75/4/2 74/4/2 76/4/2
f 77/6/2 78/6/2 81/6/2
f 81/6/2 78/6/2 82/6/2
f 79/6/2 80/6/2 83/6/2
f 83/6/2 80/6/2 84/6/2
f 85/2/2 86/2/2 87/2/2
f 87/2/2 86/2/2 88/2/2
f 89/1/2 90/1/2 91/1/2
f 91/1/2 90/1/2 92/1/2
f 93/1/2 94/1/2 95/1/2
f 95/1/2 94/1/2 96/1/2
f 97/2/2 98/2/2 99/2/2
f 99/2/2 98/2/2 100/2/2
f 101/1/2 102/1/2 103/1/2
f 103/1/2 102/1/2 104/1/2
f 105/2/2 106/2/2 107/2/2
f 107/2/2 106/2/2 108/2/2
f 108/2/2 109/2/2 110/2/2
f 110/2/2 109/2/2 111/2/2
f 112/2/2 113/2/2 114/2/2
f 114/2/2 113/2/2 115/2/2
f 115/2/2 113/2/2 116/2/2
f 116/2/2 113/2/2 119/2/2
f 119/2/2 113/2/2 120/2/2
f 117/4/2 118/4/2 121/4/2
f 118/3/2 119/3/2 122/3/2
f 121/4/2 118/4/2 122/4/2
f 122/3/2 119/3/2 123/3/2
f 120/2/2 113/2/2 124/2/2
f 124/2/2 113/2/2 125/2/2
f 125/2/2 113/2/2 126/2/2
f 126/2/2 113/2/2 127/2/2
f 128/5/2 129/5/2 130/5/2
f 130/5/2 129/5/2 131/5/2
f 132/4/2 133/4/2 135/4/2
f 133/3/2 134/3/2 136/3/2
f 135/4/2 133/4/2 136/4/2
f 136/3/2 134/3/2 137/3/2
f 140/5/3 139/5/3 138/5/3
f 141/5/3 139/5/3 140/5/3
f 144/2/3 143/2/3 142/2/3
f 146/2/3 144/2/3 142/2/3
f 146/2/3 145/2/3 144/2/3
f 147/2/3 145/2/3 146/2/3
f 148/2/3 146/2/3 142/2/3
f 149/2/3 146/2/3 148/2/3
f 153/4/3 151/4/3 150/4/3
f 154/4/3 151/4/3 153/4/3
f 155/4/3 151/4/3 154/4/3
f 159/2/3 153/2/3 152/2/3
f 159/2/3 154/2/3 153/2/3
f 160/2/3 154/2/3 159/2/3
f 161/4/3 156/4/3 155/4/3
f 162/2/3 161/2/3 160/2/3
f 163/2/3 161/2/3 162/2/3
f 164/6/3 158/6/3 157/6/3
f 165/6/3 158/6/3 164/6/3
f 167/2/3 161/2/3 163/2/3
f 169/2/3 167/2/3 166/2/3
f 170/4/3 156/4/3 161/4/3
f 170/2/3 161/2/3 167/2/3
f 170/2/3 167/2/3 169/2/3
f 171/2/3 169/2/3 168/2/3
f 172/2/3 169/2/3 171/2/3
f 173/2/3 169/2/3 172/2/3
f 174/4/3 156/4/3 170/4/3
f 175/4/3 156/4/3 174/4/3
f 176/4/3 173/4/3 172/4/3
f 176/4/3 174/4/3 173/4/3
f 177/4/3 174/4/3 176/4/3
f 181/2/3 179/2/3 178/2/3
f 182/4/3 180/4/3 179/4/3
f 182/2/3 179/2/3 181/2/3
f 183/4/3 180/4/3 182/4/3
f 186/2/3 185/2/3 184/2/3
f 187/2/3 185/2/3 186/2/3
f 190/1/3 189/1/3 188/1/3
f 191/1/3 189/1/3 190/1/3
f 194/1/3 193/1/3 192/1/3
f 196/1/3 194/1/3 192/1/3
f 196/1/3 195/1/3 194/1/3
f 197/1/3 195/1/3 196/1/3
f 199/1/3 195/1/3 197/1/3
f 200/1/3 199/1/3 198/1/3
f 201/1/3 195/1/3 199/1/3
f 201/1/3 199/1/3 200/1/3
f 204/6/3 203/6/3 202/6/3
f 205/6/3 203/6/3 204/6/3
f 208/2/3 207/2/3 206/2/3
f 209/2/3 207/2/3 208/2/3
f 210/2/3 207/2/3 209/2/3
f 211/2/3 207/2/3 210/2/3
f 212/2/3 207/2/3 211/2/3
f 213/2/3 207/2/3 212/2/3
f 216/2/3 215/2/3 214/2/3
f 218/2/3 216/2/3 214/2/3
f 218/2/3 217/2/3 216/2/3
f 219/2/3 217/2/3 218/2/3
f 222/2/3 221/2/3 220/2/3
f 223/2/3 221/2/3 222/2/3
f 224/6/4 225/6/4 226/6/4
f 226/6/4 225/6/4 227/6/4
f 228/3/4 229/3/4 230/3/4
f 230/3/4 229/3/4 231/3/4
f 231/3/4 229/3/4 232/3/4
f 231/4/4 232/4/4 234/4/4
f 232/3/4 233/3/4 235/3/4
f 234/4/4 232/4/4 235/4/4
f 235/3/4 233/3/4 237/3/4
f 237/3/4 233/3/4 238/3/4
f 236/3/4 237/3/4 239/3/4
f 239/3/4 237/3/4 240/3/4
f 241/1/4 242/1/4 243/1/4
f 243/1/4 242/1/4 244/1/4
f 245/1/4 246/1/4 247/1/4
f 245/1/4 247/1/4 249/1/4
f 247/1/4 248/1/4 249/1/4
f 249/1/4 248/1/4 250/1/4
f 251/6/4 252/6/4 253/6/4
f 253/6/4 252/6/4 254/6/4
f 255/5/4 256/5/4 257/5/4
f 255/5/4 257/5/4 259/5/4
f 257/2/4 258/2/4 259/2/4
f 259/2/4 258/2/4 260/2/4
f 255/5/4 259/5/4 261/5/4
f 261/5/4 259/5/4 262/5/4
f 265/6/5 264/6/5 263/6/5
f 266/6/5 264/6/5 265/6/5
f 269/6/5 268/6/5 267/6/5
f 270/6/5 268/6/5 269/6/5
f 273/5/5 272/5/5 271/5/5
f 274/5/5 272/5/5 273/5/5
f 275/5/5 273/5/5 271/5/5
f 276/5/5 272/5/5 274/5/5
f 277/5/5 275/5/5 271/5/5
f 277/5/5 276/5/5 275/5/5
f 278/5/5 272/5/5 276/5/5
f 278/5/5 276/5/5 277/5/5
f 279/5/5 277/5/5 271/5/5
f 280/5/5 272/5/5 278/5/5
f 281/5/5 279/5/5 271/5/5
f 281/5/5 280/5/5 279/5/5
f 282/5/5 272/5/5 280/5/5
f 282/5/5 280/5/5 281/5/5
f 287/4/5 284/4/5 283/4/5
f 288/4/5 284/4/5 287/4/5
f 289/4/5 286/4/5 285/4/5
f 290/4/5 286/4/5 289/4/5
f 291/3/5 288/3/5 287/3/5
f 292/3/5 288/3/5 291/3/5
f 293/3/5 290/3/5 289/3/5
f 294/3/5 290/3/5 293/3/5
f 299/4/5 296/4/5 295/4/5
f 300/4/5 296/4/5 299/4/5
f 301/4/5 298/4/5 297/4/5
f 302/4/5 298/4/5 301/4/5
f 305/1/5 304/1/5 303/1/5
f 306/1/5 304/1/5 305/1/5
f 307/5/6 308/5/6 309/5/6
f 309/5/6 308/5/6 310/5/6
f 307/5/6 309/5/6 311/5/6
f 311/5/6 309/5/6 312/5/6
f 310/5/6 308/5/6 313/5/6
f 313/5/6 308/5/6 314/5/6
f 307/5/6 311/5/6 315/5/6
f 315/5/6 311/5/6 316/5/6
f 314/5/6 308/5/6 317/5/6
f 317/5/6 308/5/6 318/5/6
f 319/2/6 320/2/6 324/2/6
f 324/2/6 320/2/6 325/2/6
f 321/2/6 322/2/6 326/2/6
f 326/2/6 322/2/6 327/2/6
f 323/2/6 324/2/6 329/2/6
f 329/2/6 324/2/6 330/2/6
f 327/2/6 328/2/6 331/2/6
f 331/2/6 328/2/6 332/2/6
f 333/2/6 334/2/6 335/2/6
f 335/2/6 334/2/6 336/2/6
f 337/2/6 338/2/6 339/2/6
f 339/2/6 338/2/6 340/2/6
f 341/4/6 342/4/6 345/4/6
f 345/4/6 342/4/6 346/4/6
f 343/4/6 344/4/6 347/4/6
f 347/4/6 344/4/6 348/4/6
f 345/3/6 346/3/6 349/3/6
f 349/3/6 346/3/6 350/3/6
f 347/3/6 348/3/6 352/3/6
f 352/3/6 348/3/6 353/3/6
f 351/2/6 352/2/6 354/2/6
f 354/2/6 352/2/6 355/2/6
f 351/2/6 354/2/6 356/2/6
f 356/2/6 354/2/6 357/2/6
f 355/2/6 352/2/6 358/2/6
f 358/2/6 352/2/6 359/2/6
f 359/2/6 352/2/6 361/2/6
f 351/2/6 356/2/6 362/2/6
f 362/2/6 356/2/6 363/2/6
f 360/2/6 361/2/6 364/2/6
f 361/2/6 352/2/6 365/2/6
f 364/2/6 361/2/6 365/2/6
f 366/4/6 367/4/6 368/4/6
f 368/4/6 367/4/6 369/4/6
f 368/3/6 369/3/6 370/3/6
f 370/3/6 369/3/6 371/3/6
f 372/1/6 373/1/6 376/1/6
f 376/1/6 373/1/6 377/1/6
f 374/1/6 375/1/6 378/1/6
f 374/1/6 378/1/6 380/1/6
f 378/1/6 379/1/6 380/1/6
f 380/1/6 379/1/6 381/1/6
f 382/1/6 383/1/6 384/1/6
f 384/1/6 383/1/6 385/1/6
f 385/1/6 383/1/6 386/1/6
f 386/1/6 383/1/6 387/1/6
f 385/1/6 386/1/6 389/1/6
f 389/1/6 386/1/6 390/1/6
f 389/2/6 390/2/6 392/2/6
f 390/2/6 391/2/6 392/2/6
f 388/2/6 389/2/6 392/2/6
f 392/2/6 391/2/6 393/2/6
f 394/2/6 395/2/6 396/2/6
f 396/2/6 395/2/6 397/2/6
