# MagicaVoxel @ Ephtracy

# group
g Tree

# material
mtllib Tree.mtl
usemtl palette

# normals
vn -1 0 0
vn 1 0 0
vn 0 0 1
vn 0 0 -1
vn 0 -1 0
vn 0 1 0

# texcoords
vt 0.369141 0.5
vt 0.392578 0.5
vt 0.462891 0.5
vt 0.537109 0.5
vt 0.650391 0.5

# verts
v -20 73 -7
v -20 73 -20
v -20 75 -7
v -20 75 -20
v -20 77 -7
v -20 77 -20
v -20 89 -7
v -20 89 -20
v -15 53 -12
v -15 53 -16
v -15 73 -12
v -15 73 -16
v -13 78 14
v -13 78 -7
v -13 81 14
v -13 81 -7
v -13 88 14
v -13 88 -7
v -13 89 -7
v -13 89 -13
v -13 97 14
v -13 97 -13
v -13 105 14
v -13 105 -13
v -13 108 14
v -13 108 -13
v -13 110 14
v -13 110 -13
v -4 0 4
v -4 0 -3
v -4 78 4
v -4 78 -3
v -2 103 -13
v -2 103 -17
v -2 105 -13
v -2 108 -13
v -2 108 -17
v -2 110 -10
v -2 110 -12
v -2 110 -13
v -2 110 -17
v -2 113 -16
v -2 113 -17
v -2 114 -10
v -2 114 -16
v -2 115 -10
v -2 115 -17
v 0 53 -3
v 0 53 -12
v 0 56 -3
v 0 56 -12
v 0 57 -3
v 0 57 -12
v 9 101 20
v 9 101 14
v 9 105 14
v 9 108 14
v 9 110 14
v 9 110 12
v 9 110 7
v 9 114 20
v 9 114 7
v 9 116 20
v 9 116 7
v 9 119 20
v 9 119 7
v -11 57 -12
v -11 57 -16
v -11 73 -12
v -11 73 -16
v -8 73 -7
v -8 73 -20
v -8 75 -7
v -8 75 -20
v -8 77 -7
v -8 77 -20
v -8 78 -7
v -8 78 -13
v -8 81 -13
v -8 81 -14
v -8 88 -13
v -8 88 -14
v -8 89 -13
v -8 89 -20
v 4 0 4
v 4 0 -3
v 4 53 -3
v 4 53 -16
v 4 57 -3
v 4 57 -16
v 4 78 4
v 4 78 -3
v 7 103 -13
v 7 103 -17
v 7 105 -13
v 7 108 -13
v 7 108 -17
v 7 110 -10
v 7 110 -12
v 7 110 -13
v 7 110 -17
v 7 113 -16
v 7 113 -17
v 7 114 -10
v 7 114 -11
v 7 115 -10
v 7 115 -11
v 7 115 -16
v 7 115 -17
v 14 78 14
v 14 78 -13
v 14 81 14
v 14 81 -13
v 14 88 14
v 14 88 -13
v 14 97 14
v 14 97 -13
v 14 101 14
v 14 101 7
v 14 105 7
v 14 105 -13
v 14 108 7
v 14 108 -13
v 14 110 7
v 14 110 -13
v 20 101 20
v 20 101 7
v 20 114 20
v 20 114 7
v 20 116 20
v 20 116 7
v 20 119 20
v 20 119 7
v 9 101 20
v 9 114 20
v 9 116 20
v 9 119 20
v 20 101 20
v 20 114 20
v 20 116 20
v 20 119 20
v -13 78 14
v -13 81 14
v -13 88 14
v -13 97 14
v -13 105 14
v -13 108 14
v -13 110 14
v 9 101 14
v 9 105 14
v 9 108 14
v 9 110 14
v 14 78 14
v 14 81 14
v 14 88 14
v 14 97 14
v 14 101 14
v -4 0 4
v -4 78 4
v 4 0 4
v 4 78 4
v -20 73 -7
v -20 75 -7
v -20 77 -7
v -20 89 -7
v -14 81 -7
v -14 88 -7
v -13 78 -7
v -13 81 -7
v -13 88 -7
v -13 89 -7
v -8 73 -7
v -8 75 -7
v -8 77 -7
v -8 78 -7
v -2 110 -10
v -2 114 -10
v -2 115 -10
v 7 110 -10
v 7 114 -10
v 7 115 -10
v -15 53 -12
v -15 73 -12
v -11 57 -12
v -11 73 -12
v 0 53 -12
v 0 56 -12
v 0 57 -12
v 9 110 7
v 9 114 7
v 9 116 7
v 9 119 7
v 12 110 7
v 14 101 7
v 14 105 7
v 14 108 7
v 14 110 7
v 20 101 7
v 20 114 7
v 20 116 7
v 20 119 7
v -4 0 -3
v -4 78 -3
v -3 0 -3
v -3 78 -3
v 0 53 -3
v 0 56 -3
v 0 57 -3
v 3 0 -3
v 3 53 -3
v 3 57 -3
v 3 78 -3
v 4 0 -3
v 4 53 -3
v 4 57 -3
v 4 78 -3
v -13 89 -13
v -13 97 -13
v -13 105 -13
v -13 108 -13
v -13 110 -13
v -8 78 -13
v -8 81 -13
v -8 88 -13
v -8 89 -13
v -2 103 -13
v -2 105 -13
v -2 108 -13
v -2 110 -13
v 7 103 -13
v 7 105 -13
v 7 108 -13
v 7 110 -13
v 14 78 -13
v 14 81 -13
v 14 88 -13
v 14 97 -13
v 14 105 -13
v 14 108 -13
v 14 110 -13
v -15 53 -16
v -15 73 -16
v -11 57 -16
v -11 73 -16
v 4 53 -16
v 4 57 -16
v -2 103 -17
v -2 108 -17
v -2 110 -17
v -2 113 -17
v -2 115 -17
v 7 103 -17
v 7 108 -17
v 7 110 -17
v 7 113 -17
v 7 115 -17
v -20 73 -20
v -20 75 -20
v -20 77 -20
v -20 89 -20
v -8 73 -20
v -8 75 -20
v -8 77 -20
v -8 89 -20
v -4 0 4
v 4 0 4
v -3 0 3
v 3 0 3
v -4 0 -3
v -3 0 -3
v 3 0 -3
v 4 0 -3
v 0 53 -3
v 3 53 -3
v 4 53 -3
v -15 53 -12
v 0 53 -12
v -14 53 -13
v 0 53 -13
v -14 53 -15
v 3 53 -15
v -15 53 -16
v 4 53 -16
v -20 73 -7
v -8 73 -7
v -15 73 -12
v -11 73 -12
v -15 73 -16
v -11 73 -16
v -20 73 -20
v -8 73 -20
v -13 78 14
v 14 78 14
v -4 78 4
v 4 78 4
v -4 78 -3
v -3 78 -3
v 3 78 -3
v 4 78 -3
v -13 78 -7
v -8 78 -7
v -8 78 -13
v 14 78 -13
v 9 101 20
v 20 101 20
v 9 101 14
v 14 101 14
v 14 101 7
v 20 101 7
v -2 103 -13
v 7 103 -13
v -2 103 -17
v 7 103 -17
v 0 57 -3
v 3 57 -3
v 4 57 -3
v -11 57 -12
v 0 57 -12
v -11 57 -16
v 4 57 -16
v -20 89 -7
v -13 89 -7
v -13 89 -13
v -8 89 -13
v -20 89 -20
v -8 89 -20
v -13 110 14
v 9 110 14
v -2 110 13
v 2 110 13
v -12 110 12
v -2 110 12
v 2 110 12
v 9 110 12
v 9 110 7
v 12 110 7
v 14 110 7
v -2 110 -10
v 7 110 -10
v -12 110 -12
v -2 110 -12
v 7 110 -12
v 12 110 -12
v -13 110 -13
v -2 110 -13
v 7 110 -13
v 14 110 -13
v -2 115 -10
v 7 115 -10
v -1 115 -11
v 1 115 -11
v 2 115 -11
v 7 115 -11
v -1 115 -16
v 1 115 -16
v 2 115 -16
v 7 115 -16
v -2 115 -17
v 7 115 -17
v 9 119 20
v 20 119 20
v 9 119 7
v 20 119 7

# faces
f 3/5/1 2/5/1 1/5/1
f 4/5/1 2/5/1 3/5/1
f 5/3/1 4/3/1 3/3/1
f 6/3/1 4/3/1 5/3/1
f 7/5/1 6/5/1 5/5/1
f 8/5/1 6/5/1 7/5/1
f 11/4/1 10/4/1 9/4/1
f 12/4/1 10/4/1 11/4/1
f 15/5/1 14/5/1 13/5/1
f 16/5/1 14/5/1 15/5/1
f 17/3/1 16/3/1 15/3/1
f 18/3/1 16/3/1 17/3/1
f 19/5/1 18/5/1 17/5/1
f 21/5/1 19/5/1 17/5/1
f 21/5/1 20/5/1 19/5/1
f 22/5/1 20/5/1 21/5/1
f 23/3/1 22/3/1 21/3/1
f 24/3/1 22/3/1 23/3/1
f 25/5/1 24/5/1 23/5/1
f 26/5/1 24/5/1 25/5/1
f 27/3/1 26/3/1 25/3/1
f 28/3/1 26/3/1 27/3/1
f 31/4/1 30/4/1 29/4/1
f 32/4/1 30/4/1 31/4/1
f 35/5/1 34/5/1 33/5/1
f 36/5/1 34/5/1 35/5/1
f 37/5/1 34/5/1 36/5/1
f 40/3/1 37/3/1 36/3/1
f 41/3/1 37/3/1 40/3/1
f 42/5/1 39/5/1 38/5/1
f 42/5/1 40/5/1 39/5/1
f 42/5/1 41/5/1 40/5/1
f 43/5/1 41/5/1 42/5/1
f 44/5/1 42/5/1 38/5/1
f 45/3/1 43/3/1 42/3/1
f 45/5/1 42/5/1 44/5/1
f 46/3/1 45/3/1 44/3/1
f 47/3/1 43/3/1 45/3/1
f 47/3/1 45/3/1 46/3/1
f 50/1/1 49/1/1 48/1/1
f 51/1/1 49/1/1 50/1/1
f 52/4/1 51/4/1 50/4/1
f 53/4/1 51/4/1 52/4/1
f 56/5/1 55/5/1 54/5/1
f 57/5/1 56/5/1 54/5/1
f 58/5/1 57/5/1 54/5/1
f 61/5/1 58/5/1 54/5/1
f 61/5/1 60/5/1 59/5/1
f 61/5/1 59/5/1 58/5/1
f 62/5/1 60/5/1 61/5/1
f 63/3/1 62/3/1 61/3/1
f 64/3/1 62/3/1 63/3/1
f 65/5/1 64/5/1 63/5/1
f 66/5/1 64/5/1 65/5/1
f 67/4/2 68/4/2 69/4/2
f 69/4/2 68/4/2 70/4/2
f 71/5/2 72/5/2 73/5/2
f 73/5/2 72/5/2 74/5/2
f 73/3/2 74/3/2 75/3/2
f 75/3/2 74/3/2 76/3/2
f 75/5/2 76/5/2 77/5/2
f 77/5/2 76/5/2 78/5/2
f 78/5/2 76/5/2 79/5/2
f 79/5/2 76/5/2 80/5/2
f 79/3/2 80/3/2 81/3/2
f 80/5/2 76/5/2 82/5/2
f 81/3/2 80/3/2 82/3/2
f 81/5/2 82/5/2 83/5/2
f 82/5/2 76/5/2 84/5/2
f 83/5/2 82/5/2 84/5/2
f 85/4/2 86/4/2 87/4/2
f 85/4/2 87/4/2 89/4/2
f 87/4/2 88/4/2 89/4/2
f 89/4/2 88/4/2 90/4/2
f 85/4/2 89/4/2 91/4/2
f 91/4/2 89/4/2 92/4/2
f 93/5/2 94/5/2 95/5/2
f 95/5/2 94/5/2 96/5/2
f 96/5/2 94/5/2 97/5/2
f 96/3/2 97/3/2 100/3/2
f 100/3/2 97/3/2 101/3/2
f 98/5/2 99/5/2 102/5/2
f 99/5/2 100/5/2 102/5/2
f 100/5/2 101/5/2 102/5/2
f 102/5/2 101/5/2 103/5/2
f 98/5/2 102/5/2 104/5/2
f 104/5/2 102/5/2 105/5/2
f 104/3/2 105/3/2 106/3/2
f 105/5/2 102/5/2 107/5/2
f 106/3/2 105/3/2 107/3/2
f 102/3/2 103/3/2 108/3/2
f 107/5/2 102/5/2 108/5/2
f 108/3/2 103/3/2 109/3/2
f 110/5/2 111/5/2 112/5/2
f 112/5/2 111/5/2 113/5/2
f 112/3/2 113/3/2 114/3/2
f 114/3/2 113/3/2 115/3/2
f 114/5/2 115/5/2 116/5/2
f 116/5/2 115/5/2 117/5/2
f 116/3/2 117/3/2 118/3/2
f 118/3/2 117/3/2 119/3/2
f 119/3/2 117/3/2 120/3/2
f 120/3/2 117/3/2 121/3/2
f 120/5/2 121/5/2 122/5/2
f 122/5/2 121/5/2 123/5/2
f 122/3/2 123/3/2 124/3/2
f 124/3/2 123/3/2 125/3/2
f 126/5/2 127/5/2 128/5/2
f 128/5/2 127/5/2 129/5/2
f 128/3/2 129/3/2 130/3/2
f 130/3/2 129/3/2 131/3/2
f 130/5/2 131/5/2 132/5/2
f 132/5/2 131/5/2 133/5/2
f 138/5/3 135/5/3 134/5/3
f 139/3/3 136/3/3 135/3/3
f 139/5/3 135/5/3 138/5/3
f 140/5/3 137/5/3 136/5/3
f 140/3/3 136/3/3 139/3/3
f 141/5/3 137/5/3 140/5/3
f 149/3/3 146/3/3 145/3/3
f 150/5/3 147/5/3 146/5/3
f 150/3/3 146/3/3 149/3/3
f 151/3/3 148/3/3 147/3/3
f 151/5/3 147/5/3 150/5/3
f 152/3/3 148/3/3 151/3/3
f 153/5/3 143/5/3 142/5/3
f 154/3/3 144/3/3 143/3/3
f 154/5/3 143/5/3 153/5/3
f 155/5/3 145/5/3 144/5/3
f 155/3/3 144/3/3 154/3/3
f 156/3/3 149/3/3 145/3/3
f 156/5/3 145/5/3 155/5/3
f 157/3/3 149/3/3 156/3/3
f 160/4/3 159/4/3 158/4/3
f 161/4/3 159/4/3 160/4/3
f 166/5/3 165/5/3 164/5/3
f 167/5/3 165/5/3 166/5/3
f 168/5/3 166/5/3 164/5/3
f 169/3/3 167/3/3 166/3/3
f 169/5/3 166/5/3 168/5/3
f 170/5/3 165/5/3 167/5/3
f 170/3/3 167/3/3 169/3/3
f 171/5/3 165/5/3 170/5/3
f 172/5/3 163/5/3 162/5/3
f 173/3/3 164/3/3 163/3/3
f 173/5/3 163/5/3 172/5/3
f 174/5/3 168/5/3 164/5/3
f 174/3/3 164/3/3 173/3/3
f 175/5/3 168/5/3 174/5/3
f 179/5/3 177/5/3 176/5/3
f 180/3/3 178/3/3 177/3/3
f 180/5/3 177/5/3 179/5/3
f 181/3/3 178/3/3 180/3/3
f 184/4/3 183/4/3 182/4/3
f 185/4/3 183/4/3 184/4/3
f 186/4/3 184/4/3 182/4/3
f 187/4/3 184/4/3 186/4/3
f 188/4/3 184/4/3 187/4/3
f 189/5/4 190/5/4 193/5/4
f 193/5/4 190/5/4 197/5/4
f 195/5/4 196/5/4 198/5/4
f 196/5/4 197/5/4 198/5/4
f 194/5/4 195/5/4 198/5/4
f 190/3/4 191/3/4 199/3/4
f 198/5/4 197/5/4 199/5/4
f 197/5/4 190/5/4 199/5/4
f 191/5/4 192/5/4 200/5/4
f 199/3/4 191/3/4 200/3/4
f 200/5/4 192/5/4 201/5/4
f 202/4/4 203/4/4 204/4/4
f 204/4/4 203/4/4 205/4/4
f 204/1/4 205/1/4 206/1/4
f 206/1/4 205/1/4 207/1/4
f 207/1/4 205/1/4 208/1/4
f 204/1/4 206/1/4 209/1/4
f 209/1/4 206/1/4 210/1/4
f 208/1/4 205/1/4 211/1/4
f 211/1/4 205/1/4 212/1/4
f 209/4/4 210/4/4 213/4/4
f 213/4/4 210/4/4 214/4/4
f 211/4/4 212/4/4 215/4/4
f 215/4/4 212/4/4 216/4/4
f 217/5/4 218/5/4 225/5/4
f 218/3/4 219/3/4 226/3/4
f 219/5/4 220/5/4 227/5/4
f 226/3/4 219/3/4 227/3/4
f 220/3/4 221/3/4 228/3/4
f 227/5/4 220/5/4 228/5/4
f 228/3/4 221/3/4 229/3/4
f 218/3/4 226/3/4 230/3/4
f 222/5/4 223/5/4 234/5/4
f 223/3/4 224/3/4 235/3/4
f 234/5/4 223/5/4 235/5/4
f 224/5/4 225/5/4 236/5/4
f 235/3/4 224/3/4 236/3/4
f 225/5/4 218/5/4 237/5/4
f 236/5/4 225/5/4 237/5/4
f 218/3/4 230/3/4 237/3/4
f 230/3/4 231/3/4 237/3/4
f 231/5/4 232/5/4 238/5/4
f 237/3/4 231/3/4 238/3/4
f 232/3/4 233/3/4 239/3/4
f 238/5/4 232/5/4 239/5/4
f 239/3/4 233/3/4 240/3/4
f 241/4/4 242/4/4 243/4/4
f 243/4/4 242/4/4 244/4/4
f 241/4/4 243/4/4 245/4/4
f 245/4/4 243/4/4 246/4/4
f 247/5/4 248/5/4 252/5/4
f 248/3/4 249/3/4 253/3/4
f 252/5/4 248/5/4 253/5/4
f 249/5/4 250/5/4 254/5/4
f 253/3/4 249/3/4 254/3/4
f 250/3/4 251/3/4 255/3/4
f 254/5/4 250/5/4 255/5/4
f 255/3/4 251/3/4 256/3/4
f 257/5/4 258/5/4 261/5/4
f 258/3/4 259/3/4 262/3/4
f 261/5/4 258/5/4 262/5/4
f 259/5/4 260/5/4 263/5/4
f 262/3/4 259/3/4 263/3/4
f 263/5/4 260/5/4 264/5/4
f 267/4/5 266/4/5 265/4/5
f 268/4/5 266/4/5 267/4/5
f 269/4/5 267/4/5 265/4/5
f 270/1/5 268/1/5 267/1/5
f 270/4/5 267/4/5 269/4/5
f 271/4/5 266/4/5 268/4/5
f 271/1/5 268/1/5 270/1/5
f 272/4/5 266/4/5 271/4/5
f 277/1/5 274/1/5 273/1/5
f 278/4/5 277/4/5 276/4/5
f 279/1/5 274/1/5 277/1/5
f 279/4/5 277/4/5 278/4/5
f 280/4/5 278/4/5 276/4/5
f 280/1/5 279/1/5 278/1/5
f 281/4/5 275/4/5 274/4/5
f 281/1/5 279/1/5 280/1/5
f 281/1/5 274/1/5 279/1/5
f 282/4/5 280/4/5 276/4/5
f 282/4/5 281/4/5 280/4/5
f 283/4/5 275/4/5 281/4/5
f 283/4/5 281/4/5 282/4/5
f 286/5/5 285/5/5 284/5/5
f 287/5/5 285/5/5 286/5/5
f 288/5/5 286/5/5 284/5/5
f 289/5/5 285/5/5 287/5/5
f 290/5/5 288/5/5 284/5/5
f 290/5/5 289/5/5 288/5/5
f 291/5/5 285/5/5 289/5/5
f 291/5/5 289/5/5 290/5/5
f 294/5/5 293/5/5 292/5/5
f 295/5/5 293/5/5 294/5/5
f 296/5/5 294/5/5 292/5/5
f 299/5/5 293/5/5 295/5/5
f 300/5/5 298/5/5 297/5/5
f 300/5/5 299/5/5 298/5/5
f 300/5/5 296/5/5 292/5/5
f 300/5/5 297/5/5 296/5/5
f 301/5/5 299/5/5 300/5/5
f 302/5/5 299/5/5 301/5/5
f 303/5/5 293/5/5 299/5/5
f 303/5/5 299/5/5 302/5/5
f 306/5/5 305/5/5 304/5/5
f 307/5/5 305/5/5 306/5/5
f 308/5/5 305/5/5 307/5/5
f 309/5/5 305/5/5 308/5/5
f 312/5/5 311/5/5 310/5/5
f 313/5/5 311/5/5 312/5/5
f 314/4/6 315/4/6 318/4/6
f 315/4/6 316/4/6 318/4/6
f 317/4/6 318/4/6 319/4/6
f 318/4/6 316/4/6 320/4/6
f 319/4/6 318/4/6 320/4/6
f 321/5/6 322/5/6 323/5/6
f 321/5/6 323/5/6 325/5/6
f 323/5/6 324/5/6 325/5/6
f 325/5/6 324/5/6 326/5/6
f 327/3/6 328/3/6 329/3/6
f 329/3/6 328/3/6 330/3/6
f 327/3/6 329/3/6 331/3/6
f 329/5/6 330/5/6 332/5/6
f 331/3/6 329/3/6 332/3/6
f 330/3/6 328/3/6 333/3/6
f 332/5/6 330/5/6 333/5/6
f 333/3/6 328/3/6 334/3/6
f 331/5/6 332/5/6 335/5/6
f 332/5/6 333/5/6 335/5/6
f 333/5/6 334/5/6 335/5/6
f 331/5/6 335/5/6 338/5/6
f 335/5/6 336/5/6 338/5/6
f 338/5/6 336/5/6 339/5/6
f 327/3/6 331/3/6 340/3/6
f 331/5/6 338/5/6 340/5/6
f 340/5/6 338/5/6 341/5/6
f 339/5/6 336/5/6 342/5/6
f 336/3/6 337/3/6 343/3/6
f 342/5/6 336/5/6 343/5/6
f 340/3/6 341/3/6 344/3/6
f 327/3/6 340/3/6 344/3/6
f 344/3/6 341/3/6 345/3/6
f 342/3/6 343/3/6 346/3/6
f 343/3/6 337/3/6 347/3/6
f 346/3/6 343/3/6 347/3/6
f 348/3/6 349/3/6 350/3/6
f 350/3/6 349/3/6 351/3/6
f 351/3/6 349/3/6 352/3/6
f 352/3/6 349/3/6 353/3/6
f 348/3/6 350/3/6 354/3/6
f 350/5/6 351/5/6 354/5/6
f 351/3/6 352/3/6 355/3/6
f 354/5/6 351/5/6 355/5/6
f 352/5/6 353/5/6 356/5/6
f 355/3/6 352/3/6 356/3/6
f 356/5/6 353/5/6 357/5/6
f 354/3/6 355/3/6 358/3/6
f 348/3/6 354/3/6 358/3/6
f 356/3/6 357/3/6 358/3/6
f 355/3/6 356/3/6 358/3/6
f 358/3/6 357/3/6 359/3/6
f 360/5/6 361/5/6 362/5/6
f 362/5/6 361/5/6 363/5/6
