# MagicaVoxel @ Ephtracy

# group
g Wall2

# material
mtllib Wall2.mtl
usemtl palette

# normals
vn -1 0 0
vn 1 0 0
vn 0 0 1
vn 0 0 -1
vn 0 -1 0
vn 0 1 0

# texcoords
vt 0.177734 0.5

# verts
v -40 0 -0
v -40 0 -1
v -40 7 1
v -40 7 -0
v -40 8 1
v -40 8 -1
v -36 0 -0
v -36 0 -1
v -36 7 -0
v -36 7 -1
v -32 0 -0
v -32 0 -1
v -32 7 -0
v -32 7 -1
v -28 0 -0
v -28 0 -1
v -28 7 -0
v -28 7 -1
v -24 0 -0
v -24 0 -1
v -24 7 -0
v -24 7 -1
v -20 0 -0
v -20 0 -1
v -20 7 -0
v -20 7 -1
v -16 0 -0
v -16 0 -1
v -16 7 -0
v -16 7 -1
v -12 0 -0
v -12 0 -1
v -12 7 -0
v -12 7 -1
v -8 0 -0
v -8 0 -1
v -8 7 -0
v -8 7 -1
v -4 0 -0
v -4 0 -1
v -4 7 -0
v -4 7 -1
v 2 0 -0
v 2 0 -1
v 2 7 -0
v 2 7 -1
v 6 0 -0
v 6 0 -1
v 6 7 -0
v 6 7 -1
v 10 0 -0
v 10 0 -1
v 10 7 -0
v 10 7 -1
v 14 0 -0
v 14 0 -1
v 14 7 -0
v 14 7 -1
v 18 0 -0
v 18 0 -1
v 18 7 -0
v 18 7 -1
v 22 0 -0
v 22 0 -1
v 22 7 -0
v 22 7 -1
v 26 0 -0
v 26 0 -1
v 26 7 -0
v 26 7 -1
v 30 0 -0
v 30 0 -1
v 30 7 -0
v 30 7 -1
v 34 0 -0
v 34 0 -1
v 34 7 -0
v 34 7 -1
v 38 0 -0
v 38 0 -1
v 38 7 -0
v 38 7 -1
v -38 0 -0
v -38 0 -1
v -38 7 -0
v -38 7 -1
v -34 0 -0
v -34 0 -1
v -34 7 -0
v -34 7 -1
v -30 0 -0
v -30 0 -1
v -30 7 -0
v -30 7 -1
v -26 0 -0
v -26 0 -1
v -26 7 -0
v -26 7 -1
v -22 0 -0
v -22 0 -1
v -22 7 -0
v -22 7 -1
v -18 0 -0
v -18 0 -1
v -18 7 -0
v -18 7 -1
v -14 0 -0
v -14 0 -1
v -14 7 -0
v -14 7 -1
v -10 0 -0
v -10 0 -1
v -10 7 -0
v -10 7 -1
v -6 0 -0
v -6 0 -1
v -6 7 -0
v -6 7 -1
v -2 0 -0
v -2 0 -1
v -2 7 -0
v -2 7 -1
v 4 0 -0
v 4 0 -1
v 4 7 -0
v 4 7 -1
v 8 0 -0
v 8 0 -1
v 8 7 -0
v 8 7 -1
v 12 0 -0
v 12 0 -1
v 12 7 -0
v 12 7 -1
v 16 0 -0
v 16 0 -1
v 16 7 -0
v 16 7 -1
v 20 0 -0
v 20 0 -1
v 20 7 -0
v 20 7 -1
v 24 0 -0
v 24 0 -1
v 24 7 -0
v 24 7 -1
v 28 0 -0
v 28 0 -1
v 28 7 -0
v 28 7 -1
v 32 0 -0
v 32 0 -1
v 32 7 -0
v 32 7 -1
v 36 0 -0
v 36 0 -1
v 36 7 -0
v 36 7 -1
v 40 0 -0
v 40 0 -1
v 40 7 1
v 40 7 -0
v 40 8 1
v 40 8 -1
v -40 7 1
v -40 8 1
v 40 7 1
v 40 8 1
v -40 0 -0
v -40 7 -0
v -38 0 -0
v -38 7 -0
v -36 0 -0
v -36 7 -0
v -34 0 -0
v -34 7 -0
v -32 0 -0
v -32 7 -0
v -30 0 -0
v -30 7 -0
v -28 0 -0
v -28 7 -0
v -26 0 -0
v -26 7 -0
v -24 0 -0
v -24 7 -0
v -22 0 -0
v -22 7 -0
v -20 0 -0
v -20 7 -0
v -18 0 -0
v -18 7 -0
v -16 0 -0
v -16 7 -0
v -14 0 -0
v -14 7 -0
v -12 0 -0
v -12 7 -0
v -10 0 -0
v -10 7 -0
v -8 0 -0
v -8 7 -0
v -6 0 -0
v -6 7 -0
v -4 0 -0
v -4 7 -0
v -2 0 -0
v -2 7 -0
v 2 0 -0
v 2 7 -0
v 4 0 -0
v 4 7 -0
v 6 0 -0
v 6 7 -0
v 8 0 -0
v 8 7 -0
v 10 0 -0
v 10 7 -0
v 12 0 -0
v 12 7 -0
v 14 0 -0
v 14 7 -0
v 16 0 -0
v 16 7 -0
v 18 0 -0
v 18 7 -0
v 20 0 -0
v 20 7 -0
v 22 0 -0
v 22 7 -0
v 24 0 -0
v 24 7 -0
v 26 0 -0
v 26 7 -0
v 28 0 -0
v 28 7 -0
v 30 0 -0
v 30 7 -0
v 32 0 -0
v 32 7 -0
v 34 0 -0
v 34 7 -0
v 36 0 -0
v 36 7 -0
v 38 0 -0
v 38 7 -0
v 40 0 -0
v 40 7 -0
v -40 0 -1
v -40 8 -1
v -38 0 -1
v -38 7 -1
v -36 0 -1
v -36 7 -1
v -34 0 -1
v -34 7 -1
v -32 0 -1
v -32 7 -1
v -30 0 -1
v -30 7 -1
v -28 0 -1
v -28 7 -1
v -26 0 -1
v -26 7 -1
v -24 0 -1
v -24 7 -1
v -22 0 -1
v -22 7 -1
v -20 0 -1
v -20 7 -1
v -18 0 -1
v -18 7 -1
v -16 0 -1
v -16 7 -1
v -14 0 -1
v -14 7 -1
v -12 0 -1
v -12 7 -1
v -10 0 -1
v -10 7 -1
v -8 0 -1
v -8 7 -1
v -6 0 -1
v -6 7 -1
v -4 0 -1
v -4 7 -1
v -2 0 -1
v -2 7 -1
v 2 0 -1
v 2 7 -1
v 4 0 -1
v 4 7 -1
v 6 0 -1
v 6 7 -1
v 8 0 -1
v 8 7 -1
v 10 0 -1
v 10 7 -1
v 12 0 -1
v 12 7 -1
v 14 0 -1
v 14 7 -1
v 16 0 -1
v 16 7 -1
v 18 0 -1
v 18 7 -1
v 20 0 -1
v 20 7 -1
v 22 0 -1
v 22 7 -1
v 24 0 -1
v 24 7 -1
v 26 0 -1
v 26 7 -1
v 28 0 -1
v 28 7 -1
v 30 0 -1
v 30 7 -1
v 32 0 -1
v 32 7 -1
v 34 0 -1
v 34 7 -1
v 36 0 -1
v 36 7 -1
v 38 0 -1
v 38 7 -1
v 40 0 -1
v 40 8 -1
v -40 0 -0
v -38 0 -0
v -36 0 -0
v -34 0 -0
v -32 0 -0
v -30 0 -0
v -28 0 -0
v -26 0 -0
v -24 0 -0
v -22 0 -0
v -20 0 -0
v -18 0 -0
v -16 0 -0
v -14 0 -0
v -12 0 -0
v -10 0 -0
v -8 0 -0
v -6 0 -0
v -4 0 -0
v -2 0 -0
v 2 0 -0
v 4 0 -0
v 6 0 -0
v 8 0 -0
v 10 0 -0
v 12 0 -0
v 14 0 -0
v 16 0 -0
v 18 0 -0
v 20 0 -0
v 22 0 -0
v 24 0 -0
v 26 0 -0
v 28 0 -0
v 30 0 -0
v 32 0 -0
v 34 0 -0
v 36 0 -0
v 38 0 -0
v 40 0 -0
v -40 0 -1
v -38 0 -1
v -36 0 -1
v -34 0 -1
v -32 0 -1
v -30 0 -1
v -28 0 -1
v -26 0 -1
v -24 0 -1
v -22 0 -1
v -20 0 -1
v -18 0 -1
v -16 0 -1
v -14 0 -1
v -12 0 -1
v -10 0 -1
v -8 0 -1
v -6 0 -1
v -4 0 -1
v -2 0 -1
v 2 0 -1
v 4 0 -1
v 6 0 -1
v 8 0 -1
v 10 0 -1
v 12 0 -1
v 14 0 -1
v 16 0 -1
v 18 0 -1
v 20 0 -1
v 22 0 -1
v 24 0 -1
v 26 0 -1
v 28 0 -1
v 30 0 -1
v 32 0 -1
v 34 0 -1
v 36 0 -1
v 38 0 -1
v 40 0 -1
v -40 7 1
v 40 7 1
v -40 7 -0
v -38 7 -0
v -36 7 -0
v -34 7 -0
v -32 7 -0
v -30 7 -0
v -28 7 -0
v -26 7 -0
v -24 7 -0
v -22 7 -0
v -20 7 -0
v -18 7 -0
v -16 7 -0
v -14 7 -0
v -12 7 -0
v -10 7 -0
v -8 7 -0
v -6 7 -0
v -4 7 -0
v -2 7 -0
v 2 7 -0
v 4 7 -0
v 6 7 -0
v 8 7 -0
v 10 7 -0
v 12 7 -0
v 14 7 -0
v 16 7 -0
v 18 7 -0
v 20 7 -0
v 22 7 -0
v 24 7 -0
v 26 7 -0
v 28 7 -0
v 30 7 -0
v 32 7 -0
v 34 7 -0
v 36 7 -0
v 38 7 -0
v 40 7 -0
v -38 7 -1
v -36 7 -1
v -34 7 -1
v -32 7 -1
v -30 7 -1
v -28 7 -1
v -26 7 -1
v -24 7 -1
v -22 7 -1
v -20 7 -1
v -18 7 -1
v -16 7 -1
v -14 7 -1
v -12 7 -1
v -10 7 -1
v -8 7 -1
v -6 7 -1
v -4 7 -1
v -2 7 -1
v 2 7 -1
v 4 7 -1
v 6 7 -1
v 8 7 -1
v 10 7 -1
v 12 7 -1
v 14 7 -1
v 16 7 -1
v 18 7 -1
v 20 7 -1
v 22 7 -1
v 24 7 -1
v 26 7 -1
v 28 7 -1
v 30 7 -1
v 32 7 -1
v 34 7 -1
v 36 7 -1
v 38 7 -1
v -40 8 1
v 40 8 1
v -40 8 -1
v 40 8 -1

# faces
f 4/1/1 2/1/1 1/1/1
f 5/1/1 4/1/1 3/1/1
f 6/1/1 2/1/1 4/1/1
f 6/1/1 4/1/1 5/1/1
f 9/1/1 8/1/1 7/1/1
f 10/1/1 8/1/1 9/1/1
f 13/1/1 12/1/1 11/1/1
f 14/1/1 12/1/1 13/1/1
f 17/1/1 16/1/1 15/1/1
f 18/1/1 16/1/1 17/1/1
f 21/1/1 20/1/1 19/1/1
f 22/1/1 20/1/1 21/1/1
f 25/1/1 24/1/1 23/1/1
f 26/1/1 24/1/1 25/1/1
f 29/1/1 28/1/1 27/1/1
f 30/1/1 28/1/1 29/1/1
f 33/1/1 32/1/1 31/1/1
f 34/1/1 32/1/1 33/1/1
f 37/1/1 36/1/1 35/1/1
f 38/1/1 36/1/1 37/1/1
f 41/1/1 40/1/1 39/1/1
f 42/1/1 40/1/1 41/1/1
f 45/1/1 44/1/1 43/1/1
f 46/1/1 44/1/1 45/1/1
f 49/1/1 48/1/1 47/1/1
f 50/1/1 48/1/1 49/1/1
f 53/1/1 52/1/1 51/1/1
f 54/1/1 52/1/1 53/1/1
f 57/1/1 56/1/1 55/1/1
f 58/1/1 56/1/1 57/1/1
f 61/1/1 60/1/1 59/1/1
f 62/1/1 60/1/1 61/1/1
f 65/1/1 64/1/1 63/1/1
f 66/1/1 64/1/1 65/1/1
f 69/1/1 68/1/1 67/1/1
f 70/1/1 68/1/1 69/1/1
f 73/1/1 72/1/1 71/1/1
f 74/1/1 72/1/1 73/1/1
f 77/1/1 76/1/1 75/1/1
f 78/1/1 76/1/1 77/1/1
f 81/1/1 80/1/1 79/1/1
f 82/1/1 80/1/1 81/1/1
f 83/1/2 84/1/2 85/1/2
f 85/1/2 84/1/2 86/1/2
f 87/1/2 88/1/2 89/1/2
f 89/1/2 88/1/2 90/1/2
f 91/1/2 92/1/2 93/1/2
f 93/1/2 92/1/2 94/1/2
f 95/1/2 96/1/2 97/1/2
f 97/1/2 96/1/2 98/1/2
f 99/1/2 100/1/2 101/1/2
f 101/1/2 100/1/2 102/1/2
f 103/1/2 104/1/2 105/1/2
f 105/1/2 104/1/2 106/1/2
f 107/1/2 108/1/2 109/1/2
f 109/1/2 108/1/2 110/1/2
f 111/1/2 112/1/2 113/1/2
f 113/1/2 112/1/2 114/1/2
f 115/1/2 116/1/2 117/1/2
f 117/1/2 116/1/2 118/1/2
f 119/1/2 120/1/2 121/1/2
f 121/1/2 120/1/2 122/1/2
f 123/1/2 124/1/2 125/1/2
f 125/1/2 124/1/2 126/1/2
f 127/1/2 128/1/2 129/1/2
f 129/1/2 128/1/2 130/1/2
f 131/1/2 132/1/2 133/1/2
f 133/1/2 132/1/2 134/1/2
f 135/1/2 136/1/2 137/1/2
f 137/1/2 136/1/2 138/1/2
f 139/1/2 140/1/2 141/1/2
f 141/1/2 140/1/2 142/1/2
f 143/1/2 144/1/2 145/1/2
f 145/1/2 144/1/2 146/1/2
f 147/1/2 148/1/2 149/1/2
f 149/1/2 148/1/2 150/1/2
f 151/1/2 152/1/2 153/1/2
f 153/1/2 152/1/2 154/1/2
f 155/1/2 156/1/2 157/1/2
f 157/1/2 156/1/2 158/1/2
f 159/1/2 160/1/2 162/1/2
f 161/1/2 162/1/2 163/1/2
f 162/1/2 160/1/2 164/1/2
f 163/1/2 162/1/2 164/1/2
f 167/1/3 166/1/3 165/1/3
f 168/1/3 166/1/3 167/1/3
f 171/1/3 170/1/3 169/1/3
f 172/1/3 170/1/3 171/1/3
f 175/1/3 174/1/3 173/1/3
f 176/1/3 174/1/3 175/1/3
f 179/1/3 178/1/3 177/1/3
f 180/1/3 178/1/3 179/1/3
f 183/1/3 182/1/3 181/1/3
f 184/1/3 182/1/3 183/1/3
f 187/1/3 186/1/3 185/1/3
f 188/1/3 186/1/3 187/1/3
f 191/1/3 190/1/3 189/1/3
f 192/1/3 190/1/3 191/1/3
f 195/1/3 194/1/3 193/1/3
f 196/1/3 194/1/3 195/1/3
f 199/1/3 198/1/3 197/1/3
f 200/1/3 198/1/3 199/1/3
f 203/1/3 202/1/3 201/1/3
f 204/1/3 202/1/3 203/1/3
f 207/1/3 206/1/3 205/1/3
f 208/1/3 206/1/3 207/1/3
f 211/1/3 210/1/3 209/1/3
f 212/1/3 210/1/3 211/1/3
f 215/1/3 214/1/3 213/1/3
f 216/1/3 214/1/3 215/1/3
f 219/1/3 218/1/3 217/1/3
f 220/1/3 218/1/3 219/1/3
f 223/1/3 222/1/3 221/1/3
f 224/1/3 222/1/3 223/1/3
f 227/1/3 226/1/3 225/1/3
f 228/1/3 226/1/3 227/1/3
f 231/1/3 230/1/3 229/1/3
f 232/1/3 230/1/3 231/1/3
f 235/1/3 234/1/3 233/1/3
f 236/1/3 234/1/3 235/1/3
f 239/1/3 238/1/3 237/1/3
f 240/1/3 238/1/3 239/1/3
f 243/1/3 242/1/3 241/1/3
f 244/1/3 242/1/3 243/1/3
f 247/1/3 246/1/3 245/1/3
f 248/1/3 246/1/3 247/1/3
f 249/1/4 250/1/4 251/1/4
f 251/1/4 250/1/4 252/1/4
f 252/1/4 250/1/4 254/1/4
f 253/1/4 254/1/4 255/1/4
f 254/1/4 250/1/4 256/1/4
f 255/1/4 254/1/4 256/1/4
f 256/1/4 250/1/4 258/1/4
f 257/1/4 258/1/4 259/1/4
f 258/1/4 250/1/4 260/1/4
f 259/1/4 258/1/4 260/1/4
f 260/1/4 250/1/4 262/1/4
f 261/1/4 262/1/4 263/1/4
f 262/1/4 250/1/4 264/1/4
f 263/1/4 262/1/4 264/1/4
f 264/1/4 250/1/4 266/1/4
f 265/1/4 266/1/4 267/1/4
f 266/1/4 250/1/4 268/1/4
f 267/1/4 266/1/4 268/1/4
f 268/1/4 250/1/4 270/1/4
f 269/1/4 270/1/4 271/1/4
f 270/1/4 250/1/4 272/1/4
f 271/1/4 270/1/4 272/1/4
f 272/1/4 250/1/4 274/1/4
f 273/1/4 274/1/4 275/1/4
f 274/1/4 250/1/4 276/1/4
f 275/1/4 274/1/4 276/1/4
f 276/1/4 250/1/4 278/1/4
f 277/1/4 278/1/4 279/1/4
f 278/1/4 250/1/4 280/1/4
f 279/1/4 278/1/4 280/1/4
f 280/1/4 250/1/4 282/1/4
f 281/1/4 282/1/4 283/1/4
f 282/1/4 250/1/4 284/1/4
f 283/1/4 282/1/4 284/1/4
f 284/1/4 250/1/4 286/1/4
f 285/1/4 286/1/4 287/1/4
f 286/1/4 250/1/4 288/1/4
f 287/1/4 286/1/4 288/1/4
f 288/1/4 250/1/4 290/1/4
f 289/1/4 290/1/4 291/1/4
f 290/1/4 250/1/4 292/1/4
f 291/1/4 290/1/4 292/1/4
f 292/1/4 250/1/4 294/1/4
f 293/1/4 294/1/4 295/1/4
f 294/1/4 250/1/4 296/1/4
f 295/1/4 294/1/4 296/1/4
f 296/1/4 250/1/4 298/1/4
f 297/1/4 298/1/4 299/1/4
f 298/1/4 250/1/4 300/1/4
f 299/1/4 298/1/4 300/1/4
f 300/1/4 250/1/4 302/1/4
f 301/1/4 302/1/4 303/1/4
f 302/1/4 250/1/4 304/1/4
f 303/1/4 302/1/4 304/1/4
f 304/1/4 250/1/4 306/1/4
f 305/1/4 306/1/4 307/1/4
f 306/1/4 250/1/4 308/1/4
f 307/1/4 306/1/4 308/1/4
f 308/1/4 250/1/4 310/1/4
f 309/1/4 310/1/4 311/1/4
f 310/1/4 250/1/4 312/1/4
f 311/1/4 310/1/4 312/1/4
f 312/1/4 250/1/4 314/1/4
f 313/1/4 314/1/4 315/1/4
f 314/1/4 250/1/4 316/1/4
f 315/1/4 314/1/4 316/1/4
f 316/1/4 250/1/4 318/1/4
f 317/1/4 318/1/4 319/1/4
f 318/1/4 250/1/4 320/1/4
f 319/1/4 318/1/4 320/1/4
f 320/1/4 250/1/4 322/1/4
f 321/1/4 322/1/4 323/1/4
f 322/1/4 250/1/4 324/1/4
f 323/1/4 322/1/4 324/1/4
f 324/1/4 250/1/4 326/1/4
f 325/1/4 326/1/4 327/1/4
f 326/1/4 250/1/4 328/1/4
f 327/1/4 326/1/4 328/1/4
f 369/1/5 330/1/5 329/1/5
f 370/1/5 330/1/5 369/1/5
f 371/1/5 332/1/5 331/1/5
f 372/1/5 332/1/5 371/1/5
f 373/1/5 334/1/5 333/1/5
f 374/1/5 334/1/5 373/1/5
f 375/1/5 336/1/5 335/1/5
f 376/1/5 336/1/5 375/1/5
f 377/1/5 338/1/5 337/1/5
f 378/1/5 338/1/5 377/1/5
f 379/1/5 340/1/5 339/1/5
f 380/1/5 340/1/5 379/1/5
f 381/1/5 342/1/5 341/1/5
f 382/1/5 342/1/5 381/1/5
f 383/1/5 344/1/5 343/1/5
f 384/1/5 344/1/5 383/1/5
f 385/1/5 346/1/5 345/1/5
f 386/1/5 346/1/5 385/1/5
f 387/1/5 348/1/5 347/1/5
f 388/1/5 348/1/5 387/1/5
f 389/1/5 350/1/5 349/1/5
f 390/1/5 350/1/5 389/1/5
f 391/1/5 352/1/5 351/1/5
f 392/1/5 352/1/5 391/1/5
f 393/1/5 354/1/5 353/1/5
f 394/1/5 354/1/5 393/1/5
f 395/1/5 356/1/5 355/1/5
f 396/1/5 356/1/5 395/1/5
f 397/1/5 358/1/5 357/1/5
f 398/1/5 358/1/5 397/1/5
f 399/1/5 360/1/5 359/1/5
f 400/1/5 360/1/5 399/1/5
f 401/1/5 362/1/5 361/1/5
f 402/1/5 362/1/5 401/1/5
f 403/1/5 364/1/5 363/1/5
f 404/1/5 364/1/5 403/1/5
f 405/1/5 366/1/5 365/1/5
f 406/1/5 366/1/5 405/1/5
f 407/1/5 368/1/5 367/1/5
f 408/1/5 368/1/5 407/1/5
f 411/1/5 410/1/5 409/1/5
f 412/1/5 410/1/5 411/1/5
f 413/1/5 410/1/5 412/1/5
f 414/1/5 410/1/5 413/1/5
f 415/1/5 410/1/5 414/1/5
f 416/1/5 410/1/5 415/1/5
f 417/1/5 410/1/5 416/1/5
f 418/1/5 410/1/5 417/1/5
f 419/1/5 410/1/5 418/1/5
f 420/1/5 410/1/5 419/1/5
f 421/1/5 410/1/5 420/1/5
f 422/1/5 410/1/5 421/1/5
f 423/1/5 410/1/5 422/1/5
f 424/1/5 410/1/5 423/1/5
f 425/1/5 410/1/5 424/1/5
f 426/1/5 410/1/5 425/1/5
f 427/1/5 410/1/5 426/1/5
f 428/1/5 410/1/5 427/1/5
f 429/1/5 410/1/5 428/1/5
f 430/1/5 410/1/5 429/1/5
f 431/1/5 410/1/5 430/1/5
f 432/1/5 410/1/5 431/1/5
f 433/1/5 410/1/5 432/1/5
f 434/1/5 410/1/5 433/1/5
f 435/1/5 410/1/5 434/1/5
f 436/1/5 410/1/5 435/1/5
f 437/1/5 410/1/5 436/1/5
f 438/1/5 410/1/5 437/1/5
f 439/1/5 410/1/5 438/1/5
f 440/1/5 410/1/5 439/1/5
f 441/1/5 410/1/5 440/1/5
f 442/1/5 410/1/5 441/1/5
f 443/1/5 410/1/5 442/1/5
f 444/1/5 410/1/5 443/1/5
f 445/1/5 410/1/5 444/1/5
f 446/1/5 410/1/5 445/1/5
f 447/1/5 410/1/5 446/1/5
f 448/1/5 410/1/5 447/1/5
f 449/1/5 410/1/5 448/1/5
f 450/1/5 410/1/5 449/1/5
f 451/1/5 413/1/5 412/1/5
f 452/1/5 413/1/5 451/1/5
f 453/1/5 415/1/5 414/1/5
f 454/1/5 415/1/5 453/1/5
f 455/1/5 417/1/5 416/1/5
f 456/1/5 417/1/5 455/1/5
f 457/1/5 419/1/5 418/1/5
f 458/1/5 419/1/5 457/1/5
f 459/1/5 421/1/5 420/1/5
f 460/1/5 421/1/5 459/1/5
f 461/1/5 423/1/5 422/1/5
f 462/1/5 423/1/5 461/1/5
f 463/1/5 425/1/5 424/1/5
f 464/1/5 425/1/5 463/1/5
f 465/1/5 427/1/5 426/1/5
f 466/1/5 427/1/5 465/1/5
f 467/1/5 429/1/5 428/1/5
f 468/1/5 429/1/5 467/1/5
f 469/1/5 431/1/5 430/1/5
f 470/1/5 431/1/5 469/1/5
f 471/1/5 433/1/5 432/1/5
f 472/1/5 433/1/5 471/1/5
f 473/1/5 435/1/5 434/1/5
f 474/1/5 435/1/5 473/1/5
f 475/1/5 437/1/5 436/1/5
f 476/1/5 437/1/5 475/1/5
f 477/1/5 439/1/5 438/1/5
f 478/1/5 439/1/5 477/1/5
f 479/1/5 441/1/5 440/1/5
f 480/1/5 441/1/5 479/1/5
f 481/1/5 443/1/5 442/1/5
f 482/1/5 443/1/5 481/1/5
f 483/1/5 445/1/5 444/1/5
f 484/1/5 445/1/5 483/1/5
f 485/1/5 447/1/5 446/1/5
f 486/1/5 447/1/5 485/1/5
f 487/1/5 449/1/5 448/1/5
f 488/1/5 449/1/5 487/1/5
f 489/1/6 490/1/6 491/1/6
f 491/1/6 490/1/6 492/1/6
